#N canvas 172 3 1216 1331 10;
#X obj 219 324 hsl 400 15 40 4000 0 0 empty empty frequency -2 -8 0
10 -204786 -1 -1 39900 1;
#X floatatom 216 344 5 0 0 0 - - -;
#X obj 674 444 vsl 15 128 0 1 0 0 empty empty amplitude 0 -9 0 10 -204786
-1 -1 2900 1;
#X floatatom 674 580 5 0 0 0 - - -;
#X obj -50 228 loadbang;
#X msg -50 250 440;
#X obj 216 426 osc~;
#X obj 216 387 line~;
#X msg 216 364 \$1 50;
#N canvas 0 22 450 300 (subpatch) 0;
#X array waveform 131 float 0;
#X coords 0 1 130 -1 400 130 1 0 0;
#X restore 215 155 graph;
#X obj 162 999 tgl 15 0 empty empty empty 0 -6 0 8 -262144 -1 -1 1
1;
#X obj 162 1018 metro 193;
#X obj 287 425 phasor~;
#X obj 317 461 *~ -1;
#X obj 317 486 +~ 1;
#X obj 287 520 min~;
#X obj 32 381 vradio 15 1 0 4 empty empty waveform 0 -8 0 10 -204786
-1 -1 0;
#X text 52 381 sine;
#X text 52 398 triangle;
#X text 52 413 sawtooth;
#X text 53 429 square;
#X obj 217 737 *~;
#X obj 32 459 sel 0 1 2 3;
#X obj 32 491 bng 15 250 50 0 empty empty empty 17 7 0 10 -262144 -1
-1;
#X obj 50 491 bng 15 250 50 0 empty empty empty 17 7 0 10 -262144 -1
-1;
#X obj 69 491 bng 15 250 50 0 empty empty empty 17 7 0 10 -262144 -1
-1;
#X obj 87 491 bng 15 250 50 0 empty empty empty 17 7 0 10 -262144 -1
-1;
#X msg 32 575 1 0 0 0;
#X msg 50 554 0 1 0 0;
#X msg 69 532 0 0 1 0;
#X msg 87 512 0 0 0 1;
#X obj 32 614 unpack 0 0 0 0;
#X obj 235 713 line~;
#X msg 235 690 \$1 50;
#X obj 287 737 *~;
#X obj 305 713 line~;
#X msg 305 690 \$1 50;
#X obj 365 735 *~;
#X obj 383 711 line~;
#X msg 383 688 \$1 50;
#X obj 438 734 *~;
#X obj 456 710 line~;
#X msg 456 687 \$1 50;
#X obj 440 419 phasor~;
#X obj 499 419 phasor~;
#X obj 486 365 loadbang;
#X obj 440 446 -~;
#X msg 486 392 0;
#X msg 545 392 0.5;
#X obj 308 1078 dac~;
#X obj 217 101 bng 15 250 50 0 sweep empty empty 17 7 0 10 -204786
-1 -1;
#X obj 51 237 line;
#X obj 674 624 line~;
#X msg 674 601 \$1 50;
#X obj 312 835 *~;
#X obj 162 954 loadbang;
#X msg 162 976 1;
#X obj 287 544 *~ 4;
#X obj 287 574 -~ 1;
#X obj 365 426 phasor~;
#X obj 365 573 -~ 1;
#X obj 365 543 *~ 2;
#X obj 378 855 key;
#X obj 441 855 keyup;
#X obj 378 1005 line~;
#X obj 441 960 pipe 20;
#X obj 378 881 sel 32;
#X obj 441 881 sel 32;
#X text 402 855 space;
#X obj 312 1026 *~;
#X msg 378 976 1 10;
#X obj 312 800 *~ 0.8;
#X obj 440 544 *~ 2;
#X msg 51 212 40 \, 4000 4000;
#X obj 217 76 bng 15 250 50 0 note empty empty 17 7 0 10 -204786 -1
-1;
#X obj 51 137 t b b b;
#X obj 51 189 r sweep;
#X obj 454 903 r sweep;
#X obj 123 170 s ampup;
#X obj 320 935 r ampup;
#X text 237 101 play a sweep;
#X obj 51 170 s ampdown;
#X obj 461 930 r ampdown;
#X obj 162 1077 tabwrite~ waveform;
#X msg -9 328 \; pd dsp 1;
#X obj -49 297 loadbang;
#X msg -49 328 0;
#X obj 654 386 loadbang;
#X msg 654 408 0.5;
#X obj 51 111 r note;
#X text 238 77 play a note (spacebar);
#X text 214 27 1 Waveforms;
#X obj 359 833 r keypress;
#X obj 579 776 s keypress;
#X obj 580 752 bng 15 250 50 0 empty empty empty 17 7 0 10 -262144
-1 -1;
#X obj 118 50 r pyin_play_note;
#X obj 106 85 r pyin_play_sweep;
#X obj 633 253 +;
#X obj 349 355 s freq;
#X obj 628 166 r freq;
#X msg 706 131 10;
#X obj 695 223 r pyin_mod_freq;
#X obj 706 166 s pyin_mod_freq;
#X floatatom 632 224 5 0 0 0 - - -;
#X obj -50 275 s init_freq;
#X obj 643 196 r init_freq;
#X obj 695 301 r pyin_set_freq;
#X obj 722 554 r pyin_amplitude;
#X connect 0 0 1 0;
#X connect 0 0 98 0;
#X connect 1 0 8 0;
#X connect 2 0 3 0;
#X connect 3 0 53 0;
#X connect 4 0 5 0;
#X connect 5 0 0 0;
#X connect 5 0 104 0;
#X connect 6 0 21 0;
#X connect 7 0 6 0;
#X connect 7 0 12 0;
#X connect 7 0 43 0;
#X connect 7 0 44 0;
#X connect 7 0 59 0;
#X connect 8 0 7 0;
#X connect 10 0 11 0;
#X connect 11 0 83 0;
#X connect 12 0 13 0;
#X connect 12 0 15 0;
#X connect 13 0 14 0;
#X connect 14 0 15 1;
#X connect 15 0 57 0;
#X connect 16 0 22 0;
#X connect 21 0 71 0;
#X connect 22 0 23 0;
#X connect 22 1 24 0;
#X connect 22 2 25 0;
#X connect 22 3 26 0;
#X connect 23 0 27 0;
#X connect 24 0 28 0;
#X connect 25 0 29 0;
#X connect 26 0 30 0;
#X connect 27 0 31 0;
#X connect 28 0 31 0;
#X connect 29 0 31 0;
#X connect 30 0 31 0;
#X connect 31 0 33 0;
#X connect 31 1 36 0;
#X connect 31 2 39 0;
#X connect 31 3 42 0;
#X connect 32 0 21 1;
#X connect 33 0 32 0;
#X connect 34 0 71 0;
#X connect 35 0 34 1;
#X connect 36 0 35 0;
#X connect 37 0 71 0;
#X connect 38 0 37 1;
#X connect 39 0 38 0;
#X connect 40 0 71 0;
#X connect 41 0 40 1;
#X connect 42 0 41 0;
#X connect 43 0 46 0;
#X connect 44 0 46 1;
#X connect 45 0 48 0;
#X connect 45 0 47 0;
#X connect 46 0 72 0;
#X connect 47 0 43 1;
#X connect 48 0 44 1;
#X connect 51 0 0 0;
#X connect 52 0 54 1;
#X connect 53 0 52 0;
#X connect 54 0 69 0;
#X connect 55 0 56 0;
#X connect 56 0 10 0;
#X connect 57 0 58 0;
#X connect 58 0 34 0;
#X connect 59 0 61 0;
#X connect 60 0 37 0;
#X connect 61 0 60 0;
#X connect 62 0 66 0;
#X connect 63 0 67 0;
#X connect 64 0 69 1;
#X connect 66 0 70 0;
#X connect 67 0 65 0;
#X connect 69 0 49 0;
#X connect 69 0 49 1;
#X connect 69 0 83 0;
#X connect 70 0 64 0;
#X connect 71 0 54 0;
#X connect 72 0 40 0;
#X connect 73 0 51 0;
#X connect 75 0 81 0;
#X connect 75 1 78 0;
#X connect 76 0 73 0;
#X connect 77 0 65 0;
#X connect 77 0 70 0;
#X connect 79 0 70 0;
#X connect 82 0 65 0;
#X connect 85 0 84 0;
#X connect 85 0 86 0;
#X connect 86 0 16 0;
#X connect 87 0 88 0;
#X connect 88 0 2 0;
#X connect 89 0 75 0;
#X connect 92 0 70 0;
#X connect 94 0 93 0;
#X connect 95 0 74 0;
#X connect 96 0 50 0;
#X connect 97 0 0 0;
#X connect 99 0 103 0;
#X connect 100 0 102 0;
#X connect 101 0 97 0;
#X connect 103 0 97 1;
#X connect 105 0 103 0;
#X connect 106 0 0 0;
#X connect 107 0 3 0;
