#N canvas 147 23 1215 747 10;
#X floatatom 412 444 5 0 0 0 - - -;
#X floatatom 262 464 5 0 0 0 - - -;
#X obj 244 672 dac~;
#X obj 265 422 hsl 128 15 0 1950 0 0 center cf center_frequency_(Hz)
-2 -8 0 10 -262130 -1 -1 6400 1;
#X obj 415 423 hsl 128 15 0.1 10 0 0 quality Q (Q)uality -2 -8 0 10
-262130 -1 -1 6600 1;
#X obj 251 624 vcf~;
#X msg 262 525 \$1 100;
#X obj 263 581 sig~;
#X obj 262 549 line;
#N canvas 0 50 450 300 (subpatch) 0;
#X array post 128 float 0;
#X coords 0 4300 127 -40 400 130 1 0 0;
#X restore 263 231 graph;
#X text 218 123 power;
#N canvas 42 101 558 569 post 0;
#X obj 27 45 inlet~;
#X obj 27 116 rfft~;
#X obj 27 149 *~;
#X obj 58 149 *~;
#X obj 27 179 sqrt~;
#X obj 340 133 block~ 4096 1;
#X obj 27 205 biquad~ 0 0 0 0 1;
#X obj 166 229 metro 100;
#X obj 171 186 loadbang;
#X msg 171 208 1;
#X obj 26 269 tabwrite~ post;
#X obj 27 79 *~ 3;
#X connect 0 0 11 0;
#X connect 1 0 2 0;
#X connect 1 0 2 1;
#X connect 1 1 3 0;
#X connect 1 1 3 1;
#X connect 2 0 4 0;
#X connect 3 0 4 0;
#X connect 4 0 6 0;
#X connect 6 0 10 0;
#X connect 7 0 10 0;
#X connect 8 0 9 0;
#X connect 9 0 7 0;
#X connect 11 0 1 0;
#X restore 290 672 pd post;
#N canvas 42 101 558 569 pre 0;
#X obj 27 45 inlet~;
#X obj 27 116 rfft~;
#X obj 27 149 *~;
#X obj 58 149 *~;
#X obj 27 179 sqrt~;
#X obj 340 133 block~ 4096 1;
#X obj 27 205 biquad~ 0 0 0 0 1;
#X obj 166 229 metro 100;
#X obj 171 186 loadbang;
#X msg 171 208 1;
#X obj 26 269 tabwrite~ pre;
#X obj 27 79 *~ 3;
#X connect 0 0 11 0;
#X connect 1 0 2 0;
#X connect 1 0 2 1;
#X connect 1 1 3 0;
#X connect 1 1 3 1;
#X connect 2 0 4 0;
#X connect 3 0 4 0;
#X connect 4 0 6 0;
#X connect 6 0 10 0;
#X connect 7 0 10 0;
#X connect 8 0 9 0;
#X connect 9 0 7 0;
#X connect 11 0 1 0;
#X restore 92 669 pd pre;
#N canvas 0 50 450 300 (subpatch) 0;
#X array pre 128 float 0;
#X coords 0 4300 127 -40 400 130 1 0 0;
#X restore 263 78 graph;
#X obj 92 572 phasor~;
#X obj 151 572 phasor~;
#X obj 138 488 loadbang;
#X obj 92 599 -~;
#X msg 138 515 0;
#X msg 197 515 0.5;
#X text 261 364 20Hz;
#X text 428 366 frequency;
#X text 611 362 20000Hz;
#X text 94 20 4 Filters;
#X obj 93 475 mtof;
#X obj 93 278 loadbang;
#X msg 93 363 1;
#X obj 93 418 random 20;
#X obj 93 447 + 48;
#X obj 93 388 metro 300;
#X msg 133 316 \; pd dsp 1 \; cf 300 \; Q 1;
#X obj 262 444 + 50;
#X obj 264 388 r pyin_center_frequency;
#X obj 414 389 r pyin_quality;
#X connect 0 0 5 2;
#X connect 1 0 6 0;
#X connect 3 0 31 0;
#X connect 4 0 0 0;
#X connect 5 0 2 0;
#X connect 5 0 2 1;
#X connect 5 0 11 0;
#X connect 6 0 8 0;
#X connect 7 0 5 1;
#X connect 8 0 7 0;
#X connect 14 0 17 0;
#X connect 15 0 17 1;
#X connect 16 0 19 0;
#X connect 16 0 18 0;
#X connect 17 0 12 0;
#X connect 17 0 5 0;
#X connect 18 0 14 1;
#X connect 19 0 15 1;
#X connect 24 0 14 0;
#X connect 24 0 15 0;
#X connect 25 0 26 0;
#X connect 25 0 30 0;
#X connect 26 0 29 0;
#X connect 27 0 28 0;
#X connect 28 0 24 0;
#X connect 29 0 27 0;
#X connect 31 0 1 0;
#X connect 32 0 3 0;
#X connect 33 0 4 0;
