#N canvas 291 35 869 743 10;
#N canvas 0 23 1253 755 additive 0;
#X obj 49 212 inlet;
#X obj 50 369 osc~;
#X obj 49 284 line~;
#X obj 130 369 osc~;
#X obj 130 340 *~ 2;
#X obj 210 369 osc~;
#X obj 290 369 osc~;
#X obj 370 369 osc~;
#X obj 450 369 osc~;
#X obj 530 369 osc~;
#X obj 610 369 osc~;
#X obj 690 369 osc~;
#X obj 770 369 osc~;
#X obj 210 340 *~ 3;
#X obj 290 340 *~ 4;
#X obj 370 340 *~ 5;
#X obj 450 340 *~ 6;
#X obj 530 340 *~ 7;
#X obj 610 340 *~ 8;
#X obj 690 340 *~ 9;
#X obj 770 340 *~ 10;
#X obj 68 424 line~;
#X msg 68 397 \$1 100;
#X obj 50 452 *~;
#X obj 148 424 line~;
#X msg 148 397 \$1 100;
#X obj 130 452 *~;
#X obj 228 424 line~;
#X msg 228 397 \$1 100;
#X obj 210 452 *~;
#X obj 308 424 line~;
#X msg 308 397 \$1 100;
#X obj 290 452 *~;
#X obj 388 424 line~;
#X msg 388 397 \$1 100;
#X obj 370 452 *~;
#X obj 468 424 line~;
#X msg 468 397 \$1 100;
#X obj 450 452 *~;
#X obj 548 424 line~;
#X msg 548 397 \$1 100;
#X obj 530 452 *~;
#X obj 628 424 line~;
#X msg 628 397 \$1 100;
#X obj 610 452 *~;
#X obj 708 424 line~;
#X msg 708 397 \$1 100;
#X obj 690 452 *~;
#X obj 788 424 line~;
#X msg 788 397 \$1 100;
#X obj 770 452 *~;
#X obj 269 64 vsl 15 128 0 1 0 0 empty H01 H01 0 -9 0 10 -204786 -1
-1 12700 1;
#X floatatom 269 223 5 0 0 0 - - -;
#X obj 309 63 vsl 15 128 0 1 0 0 empty H02 H02 0 -9 0 10 -204786 -1
-1 7620 1;
#X floatatom 309 223 5 0 0 0 - - -;
#X obj 349 63 vsl 15 128 0 1 0 0 empty H03 H03 0 -9 0 10 -204786 -1
-1 0 1;
#X floatatom 349 223 5 0 0 0 - - -;
#X obj 389 63 vsl 15 128 0 1 0 0 empty H04 H04 0 -9 0 10 -204786 -1
-1 0 1;
#X floatatom 389 223 5 0 0 0 - - -;
#X obj 429 63 vsl 15 128 0 1 0 0 empty H05 H05 0 -9 0 10 -204786 -1
-1 0 1;
#X floatatom 429 223 5 0 0 0 - - -;
#X obj 469 63 vsl 15 128 0 1 0 0 empty H06 H06 0 -9 0 10 -204786 -1
-1 0 1;
#X floatatom 469 223 5 0 0 0 - - -;
#X obj 509 63 vsl 15 128 0 1 0 0 empty H07 H07 0 -9 0 10 -204786 -1
-1 0 1;
#X floatatom 509 223 5 0 0 0 - - -;
#X obj 549 63 vsl 15 128 0 1 0 0 empty H08 H08 0 -9 0 10 -204786 -1
-1 0 1;
#X floatatom 549 223 5 0 0 0 - - -;
#X obj 589 63 vsl 15 128 0 1 0 0 empty H09 H09 0 -9 0 10 -204786 -1
-1 0 1;
#X floatatom 589 223 5 0 0 0 - - -;
#X obj 629 63 vsl 15 128 0 1 0 0 empty H10 H10 0 -9 0 10 -204786 -1
-1 0 1;
#X floatatom 629 223 5 0 0 0 - - -;
#X obj 49 237 mtof;
#X msg 49 261 \$1 10;
#X obj 669 63 vsl 15 128 0 1 0 0 empty H11 H11 0 -9 0 10 -204786 -1
-1 0 1;
#X obj 709 63 vsl 15 128 0 1 0 0 empty H12 H12 0 -9 0 10 -204786 -1
-1 0 1;
#X floatatom 669 223 5 0 0 0 - - -;
#X floatatom 709 223 5 0 0 0 - - -;
#X obj 840 369 osc~;
#X obj 920 369 osc~;
#X obj 858 424 line~;
#X msg 858 397 \$1 100;
#X obj 840 452 *~;
#X obj 938 424 line~;
#X msg 938 397 \$1 100;
#X obj 920 452 *~;
#X obj 840 340 *~ 11;
#X obj 920 340 *~ 12;
#X obj 50 559 outlet~;
#X obj 749 63 vsl 15 128 0 1 0 0 empty H13 H13 0 -9 0 10 -204786 -1
-1 0 1;
#X floatatom 749 223 5 0 0 0 - - -;
#X obj 789 63 vsl 15 128 0 1 0 0 empty H14 H14 0 -9 0 10 -204786 -1
-1 0 1;
#X floatatom 789 223 5 0 0 0 - - -;
#X obj 829 63 vsl 15 128 0 1 0 0 empty H15 H15 0 -9 0 10 -204786 -1
-1 0 1;
#X obj 869 63 vsl 15 128 0 1 0 0 empty H16 H16 0 -9 0 10 -204786 -1
-1 0 1;
#X floatatom 829 223 5 0 0 0 - - -;
#X floatatom 869 223 5 0 0 0 - - -;
#X obj 990 369 osc~;
#X obj 1070 369 osc~;
#X obj 1008 424 line~;
#X msg 1008 397 \$1 100;
#X obj 990 452 *~;
#X obj 1088 424 line~;
#X msg 1088 397 \$1 100;
#X obj 1070 452 *~;
#X obj 1140 369 osc~;
#X obj 1220 369 osc~;
#X obj 1158 424 line~;
#X msg 1158 397 \$1 100;
#X obj 1140 452 *~;
#X obj 1238 424 line~;
#X msg 1238 397 \$1 100;
#X obj 1220 452 *~;
#X obj 990 340 *~ 13;
#X obj 1070 340 *~ 14;
#X obj 1140 340 *~ 15;
#X obj 1220 340 *~ 16;
#X obj 50 530 *~ 0.06;
#X connect 0 0 71 0;
#X connect 1 0 23 0;
#X connect 2 0 1 0;
#X connect 2 0 4 0;
#X connect 2 0 13 0;
#X connect 2 0 14 0;
#X connect 2 0 15 0;
#X connect 2 0 16 0;
#X connect 2 0 17 0;
#X connect 2 0 18 0;
#X connect 2 0 19 0;
#X connect 2 0 20 0;
#X connect 2 0 85 0;
#X connect 2 0 86 0;
#X connect 2 0 112 0;
#X connect 2 0 113 0;
#X connect 2 0 114 0;
#X connect 2 0 115 0;
#X connect 3 0 26 0;
#X connect 4 0 3 0;
#X connect 5 0 29 0;
#X connect 6 0 32 0;
#X connect 7 0 35 0;
#X connect 8 0 38 0;
#X connect 9 0 41 0;
#X connect 10 0 44 0;
#X connect 11 0 47 0;
#X connect 12 0 50 0;
#X connect 13 0 5 0;
#X connect 14 0 6 0;
#X connect 15 0 7 0;
#X connect 16 0 8 0;
#X connect 17 0 9 0;
#X connect 18 0 10 0;
#X connect 19 0 11 0;
#X connect 20 0 12 0;
#X connect 21 0 23 1;
#X connect 22 0 21 0;
#X connect 23 0 116 0;
#X connect 24 0 26 1;
#X connect 25 0 24 0;
#X connect 26 0 116 0;
#X connect 27 0 29 1;
#X connect 28 0 27 0;
#X connect 29 0 116 0;
#X connect 30 0 32 1;
#X connect 31 0 30 0;
#X connect 32 0 116 0;
#X connect 33 0 35 1;
#X connect 34 0 33 0;
#X connect 35 0 116 0;
#X connect 36 0 38 1;
#X connect 37 0 36 0;
#X connect 38 0 116 0;
#X connect 39 0 41 1;
#X connect 40 0 39 0;
#X connect 41 0 116 0;
#X connect 42 0 44 1;
#X connect 43 0 42 0;
#X connect 44 0 116 0;
#X connect 45 0 47 1;
#X connect 46 0 45 0;
#X connect 47 0 116 0;
#X connect 48 0 50 1;
#X connect 49 0 48 0;
#X connect 50 0 116 0;
#X connect 51 0 52 0;
#X connect 52 0 22 0;
#X connect 53 0 54 0;
#X connect 54 0 25 0;
#X connect 55 0 56 0;
#X connect 56 0 28 0;
#X connect 57 0 58 0;
#X connect 58 0 31 0;
#X connect 59 0 60 0;
#X connect 60 0 34 0;
#X connect 61 0 62 0;
#X connect 62 0 37 0;
#X connect 63 0 64 0;
#X connect 64 0 40 0;
#X connect 65 0 66 0;
#X connect 66 0 43 0;
#X connect 67 0 68 0;
#X connect 68 0 46 0;
#X connect 69 0 70 0;
#X connect 70 0 49 0;
#X connect 71 0 72 0;
#X connect 72 0 2 0;
#X connect 73 0 75 0;
#X connect 74 0 76 0;
#X connect 75 0 80 0;
#X connect 76 0 83 0;
#X connect 77 0 81 0;
#X connect 78 0 84 0;
#X connect 79 0 81 1;
#X connect 80 0 79 0;
#X connect 81 0 116 0;
#X connect 82 0 84 1;
#X connect 83 0 82 0;
#X connect 84 0 116 0;
#X connect 85 0 77 0;
#X connect 86 0 78 0;
#X connect 88 0 89 0;
#X connect 89 0 99 0;
#X connect 90 0 91 0;
#X connect 91 0 102 0;
#X connect 92 0 94 0;
#X connect 93 0 95 0;
#X connect 94 0 107 0;
#X connect 95 0 110 0;
#X connect 96 0 100 0;
#X connect 97 0 103 0;
#X connect 98 0 100 1;
#X connect 99 0 98 0;
#X connect 100 0 116 0;
#X connect 101 0 103 1;
#X connect 102 0 101 0;
#X connect 103 0 116 0;
#X connect 104 0 108 0;
#X connect 105 0 111 0;
#X connect 106 0 108 1;
#X connect 107 0 106 0;
#X connect 108 0 116 0;
#X connect 109 0 111 1;
#X connect 110 0 109 0;
#X connect 111 0 116 0;
#X connect 112 0 96 0;
#X connect 113 0 97 0;
#X connect 114 0 104 0;
#X connect 115 0 105 0;
#X connect 116 0 87 0;
#X restore 93 150 pd additive;
#X text 86 26 Synthesizer Exhibit Audio Engine;
#N canvas 0 23 1213 732 filter 0;
#X obj 163 63 inlet~;
#X obj 163 336 outlet~;
#X floatatom 324 123 5 0 0 0 - - -;
#X floatatom 174 124 5 0 0 0 - - -;
#X obj 177 101 hsl 128 15 0 1 0 0 empty centerFreq centerFreq -2 -8
0 10 -262130 -1 -1 0 1;
#X obj 327 102 hsl 128 15 0 1 0 0 empty Q Q -2 -8 0 10 -262130 -1 -1
0 1;
#X obj 163 303 vcf~;
#X msg 174 204 \$1 100;
#X obj 175 260 sig~;
#X obj 174 228 line;
#X obj 174 173 + 100;
#X obj 174 147 * 1900;
#N canvas 0 23 450 300 drywet 0;
#X restore 306 324 pd drywet;
#X text 302 300 add;
#X obj 324 148 * 7;
#X obj 324 174 + 0.4;
#X connect 0 0 6 0;
#X connect 2 0 14 0;
#X connect 3 0 11 0;
#X connect 4 0 3 0;
#X connect 5 0 2 0;
#X connect 6 0 1 0;
#X connect 7 0 9 0;
#X connect 8 0 6 1;
#X connect 9 0 8 0;
#X connect 10 0 7 0;
#X connect 11 0 10 0;
#X connect 14 0 15 0;
#X connect 15 0 6 2;
#X restore 93 178 pd filter;
#N canvas 0 23 933 755 envelope 0;
#X obj 201 59 inlet~;
#X obj 199 542 outlet~;
#X obj 696 129 hsl 128 15 0 1 0 0 empty attack attack -2 -8 0 10 -262130
-1 -1 0 1;
#X obj 693 328 hsl 128 15 10 500 0 0 empty release release -2 -8 0
10 -262130 -1 -1 0 1;
#X obj 199 512 *~;
#X floatatom 693 154 5 0 0 0 - - -;
#X floatatom 690 350 5 0 0 0 - - -;
#X obj 298 69 inlet;
#X text 294 44 trigger;
#X obj 298 147 sel 0;
#X obj 387 210 t b;
#X obj 296 345 del \$2;
#X obj 295 466 line~;
#X obj 296 374 f \$4;
#X obj 296 430 pack 0 \$3;
#X msg 298 178 stop;
#X obj 353 399 pack 0 \$5;
#X obj 296 399 * 0.01;
#X obj 338 180 moses;
#X obj 338 208 t b b;
#X msg 370 281 0;
#X obj 387 254 pack 1 \$2;
#X text 478 41 D;
#X text 557 44 S;
#X obj 477 64 r D;
#X obj 564 66 r Su;
#X connect 0 0 4 0;
#X connect 2 0 5 0;
#X connect 3 0 6 0;
#X connect 4 0 1 0;
#X connect 5 0 21 1;
#X connect 5 0 11 1;
#X connect 6 0 16 1;
#X connect 7 0 9 0;
#X connect 9 0 15 0;
#X connect 9 0 16 0;
#X connect 9 1 18 0;
#X connect 10 0 11 0;
#X connect 10 0 21 0;
#X connect 11 0 13 0;
#X connect 12 0 4 1;
#X connect 13 0 17 0;
#X connect 14 0 12 0;
#X connect 15 0 11 0;
#X connect 16 0 12 0;
#X connect 17 0 14 0;
#X connect 18 0 19 0;
#X connect 18 1 10 0;
#X connect 19 0 10 0;
#X connect 19 1 20 0;
#X connect 20 0 12 0;
#X connect 21 0 12 0;
#X connect 24 0 14 1;
#X connect 25 0 13 1;
#X restore 119 205 pd envelope;
#N canvas 0 23 1280 755 LFO 0;
#X obj 223 21 inlet~;
#X obj 223 585 outlet~;
#X obj 223 556 *~;
#X obj 241 243 osc~;
#X obj 244 74 hsl 128 15 0 1 0 0 empty LFOAmpRate LFOAmpRate -2 -8
0 10 -262130 -1 -1 0 1;
#X obj 262 340 hsl 128 15 0 1 0 0 empty LFOAmpDepth LFOAmpDepth -2
-8 0 10 -262130 -1 -1 0 1;
#X floatatom 241 166 5 0 0 0 - - -;
#X floatatom 259 424 5 0 0 0 - - -;
#X obj 241 498 *~;
#X msg 241 189 \$1 100;
#X obj 241 214 line~;
#X msg 259 448 \$1 100;
#X obj 259 472 line~;
#X obj 241 268 *~ 0.5;
#X obj 241 298 +~ 0.5;
#X obj 241 525 expr~ 1-$v1;
#X obj 241 103 * 15;
#X obj 241 129 + 0.3;
#X obj 259 365 * 0.9;
#X obj 259 394 + 0;
#X connect 0 0 2 0;
#X connect 2 0 1 0;
#X connect 3 0 13 0;
#X connect 4 0 16 0;
#X connect 5 0 18 0;
#X connect 6 0 9 0;
#X connect 7 0 11 0;
#X connect 8 0 15 0;
#X connect 9 0 10 0;
#X connect 10 0 3 0;
#X connect 11 0 12 0;
#X connect 12 0 8 1;
#X connect 13 0 14 0;
#X connect 14 0 8 0;
#X connect 15 0 2 1;
#X connect 16 0 17 0;
#X connect 17 0 6 0;
#X connect 18 0 19 0;
#X connect 19 0 7 0;
#X restore 93 258 pd LFO;
#N canvas 0 23 450 300 noise 0;
#X obj 163 63 inlet~;
#X obj 164 159 outlet~;
#X connect 0 0 1 0;
#X restore 119 230 pd noise;
#N canvas 0 23 450 300 reverb 0;
#X obj 163 63 inlet~;
#X obj 163 97 outlet~;
#X connect 0 0 1 0;
#X restore 121 284 pd reverb;
#X obj 93 329 dac~;
#N canvas 528 442 450 300 midi 1;
#X obj 120 202 outlet;
#X obj 120 76 key;
#X obj 120 100 sel 32;
#X obj 120 135 random 12;
#X obj 120 165 + 60;
#X obj 179 107 r pyin_play;
#X connect 1 0 2 0;
#X connect 2 0 3 0;
#X connect 3 0 4 0;
#X connect 4 0 0 0;
#X connect 5 0 3 0;
#X restore 93 122 pd midi;
#X text 81 66 [spacebar] for random note;
#X msg 365 252 \; pd dsp 1 \; H01 1 \; H02 0.6 \; LFOAmpDepth 0 \;
;
#X obj 365 225 loadbang;
#X connect 0 0 2 0;
#X connect 2 0 4 0;
#X connect 4 0 7 0;
#X connect 4 0 7 1;
#X connect 8 0 0 0;
#X connect 11 0 10 0;
