#N canvas 305 213 1187 699 10;
#X obj 426 99 vsl 15 128 0 1 0 0 empty amp amp 0 -9 0 10 -204786 -1
-1 6350 1;
#X floatatom 426 235 5 0 0 0 - - -;
#X obj 309 335 osc~;
#X obj 305 620 dac~;
#X obj 426 332 line~;
#X obj 309 377 *~;
#X obj 327 542 line~;
#X obj 309 568 *~;
#X obj 86 77 loadbang;
#X text 299 21 1 Waveforms;
#X obj 309 104 vsl 15 128 0 1 0 0 empty freq freq 0 -9 0 10 -204786
-1 -1 0 1;
#X obj 327 455 r note;
#X obj 327 483 change;
#X obj 426 256 * 0.9;
#X msg 327 513 \$1 10;
#X text 380 515 <- longer ramp?;
#X msg 86 102 \; pd dsp 1 \; freq 0 \; amp 0.5;
#X obj 86 248 tgl 15 0 empty empty empty 17 7 0 10 -262144 -1 -1 0
1;
#X obj 86 270 s note;
#X obj 86 197 key;
#X obj 86 224 sel 32;
#N canvas 0 23 665 405 diat 0;
#X obj 108 31 inlet;
#X obj 108 58 * 8;
#X obj 108 84 int;
#X obj 108 110 sel 0 1 2 3 4 5 6 7 8;
#X msg 108 185 0;
#X msg 140 185 2;
#X msg 173 185 4;
#X msg 205 185 5;
#X msg 237 185 7;
#X msg 269 185 9;
#X msg 302 185 11;
#X msg 334 185 12;
#X text 141 85 <- change to round;
#X text 292 142 <-x;
#X obj 108 344 outlet~;
#X obj 108 251 mtof;
#X obj 108 309 line~;
#X text 169 286 <- check ramp with debounce;
#X text 163 222 <- drop an octave?;
#X msg 108 286 \$1 100;
#X obj 108 222 + 84;
#X connect 0 0 1 0;
#X connect 1 0 2 0;
#X connect 2 0 3 0;
#X connect 3 0 4 0;
#X connect 3 1 5 0;
#X connect 3 2 6 0;
#X connect 3 3 7 0;
#X connect 3 4 8 0;
#X connect 3 5 9 0;
#X connect 3 6 10 0;
#X connect 3 7 11 0;
#X connect 3 8 11 0;
#X connect 4 0 20 0;
#X connect 5 0 20 0;
#X connect 6 0 20 0;
#X connect 7 0 20 0;
#X connect 8 0 20 0;
#X connect 9 0 20 0;
#X connect 10 0 20 0;
#X connect 11 0 20 0;
#X connect 15 0 19 0;
#X connect 16 0 14 0;
#X connect 19 0 16 0;
#X connect 20 0 15 0;
#X restore 309 284 pd diat;
#X obj 426 280 + 0.1;
#X msg 426 306 \$1 20;
#X obj 149 225 r pynote;
#X connect 0 0 1 0;
#X connect 1 0 13 0;
#X connect 2 0 5 0;
#X connect 4 0 5 1;
#X connect 5 0 7 0;
#X connect 6 0 7 1;
#X connect 7 0 3 0;
#X connect 7 0 3 1;
#X connect 8 0 16 0;
#X connect 10 0 21 0;
#X connect 11 0 12 0;
#X connect 12 0 14 0;
#X connect 13 0 22 0;
#X connect 14 0 6 0;
#X connect 17 0 18 0;
#X connect 19 0 20 0;
#X connect 20 0 17 0;
#X connect 21 0 2 0;
#X connect 22 0 23 0;
#X connect 23 0 4 0;
#X connect 24 0 17 0;
