#N canvas 223 176 1093 744 10;
#N canvas 317 119 1001 743 reverb 0;
#X obj 218 76 inlet~;
#X obj 218 311 +~;
#X obj 286 311 +~;
#X obj 541 482 outlet~;
#X obj 611 482 outlet~;
#X obj 184 430 +~;
#X obj 293 431 +~;
#X obj 226 430 -~;
#X obj 333 430 -~;
#X obj 183 486 +~;
#X obj 227 487 +~;
#X obj 271 488 -~;
#X obj 310 488 -~;
#X obj 270 570 *~ 0;
#X obj 228 569 *~ 0;
#X obj 183 568 *~ 0;
#X obj 311 571 *~ 0;
#X obj 351 539 / 200;
#X obj 351 491 min 100;
#X obj 351 514 max 0;
#X obj 184 669 delwrite~ loop-del1 60;
#X obj 229 647 delwrite~ loop-del2 71.9345;
#X obj 311 601 delwrite~ loop-del4 95.945;
#X obj 351 242 delread~ loop-del1 60;
#X obj 350 270 delread~ loop-del2 71.9345;
#X obj 353 334 delread~ loop-del4 95.945;
#X obj 352 301 delread~ loop-del3 86.7545;
#X obj 270 624 delwrite~ loop-del3 86.7545;
#N canvas 0 23 450 300 reverb1 0;
#X obj 66 95 inlet~;
#X obj 130 96 inlet~;
#X obj 68 216 outlet~;
#X obj 141 215 outlet~;
#X obj 67 143 +~;
#X obj 140 141 -~;
#X obj 141 190 delread~ r1 5.43216;
#X obj 141 165 delwrite~ r1 5.43216;
#X connect 0 0 4 0;
#X connect 0 0 5 0;
#X connect 1 0 4 1;
#X connect 1 0 5 1;
#X connect 4 0 2 0;
#X connect 5 0 7 0;
#X connect 6 0 3 0;
#X restore 218 106 pd reverb1;
#N canvas 0 23 450 300 reverb2 0;
#X obj 66 95 inlet~;
#X obj 130 96 inlet~;
#X obj 68 216 outlet~;
#X obj 141 215 outlet~;
#X obj 67 143 +~;
#X obj 140 141 -~;
#X obj 140 165 delwrite~ r2 8.45346;
#X obj 141 190 delread~ r2 8.45346;
#X connect 0 0 4 0;
#X connect 0 0 5 0;
#X connect 1 0 4 1;
#X connect 1 0 5 1;
#X connect 4 0 2 0;
#X connect 5 0 6 0;
#X connect 7 0 3 0;
#X restore 218 136 pd reverb2;
#N canvas 0 23 450 300 reverb3 0;
#X obj 66 95 inlet~;
#X obj 130 96 inlet~;
#X obj 68 216 outlet~;
#X obj 141 215 outlet~;
#X obj 67 143 +~;
#X obj 140 141 -~;
#X obj 140 165 delwrite~ r3 13.4367;
#X obj 141 190 delread~ r3 13.4367;
#X connect 0 0 4 0;
#X connect 0 0 5 0;
#X connect 1 0 4 1;
#X connect 1 0 5 1;
#X connect 4 0 2 0;
#X connect 5 0 6 0;
#X connect 7 0 3 0;
#X restore 218 166 pd reverb3;
#N canvas 0 23 450 300 reverb4 0;
#X obj 66 95 inlet~;
#X obj 130 96 inlet~;
#X obj 68 216 outlet~;
#X obj 141 215 outlet~;
#X obj 67 143 +~;
#X obj 140 141 -~;
#X obj 140 165 delwrite~ r4 21.5463;
#X obj 141 190 delread~ r4 21.5463;
#X connect 0 0 4 0;
#X connect 0 0 5 0;
#X connect 1 0 4 1;
#X connect 1 0 5 1;
#X connect 4 0 2 0;
#X connect 5 0 6 0;
#X connect 7 0 3 0;
#X restore 218 196 pd reverb4;
#N canvas 0 23 450 300 reverb5 0;
#X obj 66 95 inlet~;
#X obj 130 96 inlet~;
#X obj 68 216 outlet~;
#X obj 141 215 outlet~;
#X obj 67 143 +~;
#X obj 140 141 -~;
#X obj 140 165 delwrite~ r5 34.3876;
#X obj 141 190 delread~ r5 34.3876;
#X connect 0 0 4 0;
#X connect 0 0 5 0;
#X connect 1 0 4 1;
#X connect 1 0 5 1;
#X connect 4 0 2 0;
#X connect 5 0 6 0;
#X connect 7 0 3 0;
#X restore 218 226 pd reverb5;
#N canvas 0 23 450 300 reverb6 0;
#X obj 66 95 inlet~;
#X obj 130 96 inlet~;
#X obj 68 216 outlet~;
#X obj 141 215 outlet~;
#X obj 67 143 +~;
#X obj 140 141 -~;
#X obj 140 165 delwrite~ r6 55.5437;
#X obj 141 190 delread~ r6 55.5437;
#X connect 0 0 4 0;
#X connect 0 0 5 0;
#X connect 1 0 4 1;
#X connect 1 0 5 1;
#X connect 4 0 2 0;
#X connect 5 0 6 0;
#X connect 7 0 3 0;
#X restore 218 256 pd reverb6;
#X obj 351 467 r dec;
#X connect 0 0 28 0;
#X connect 1 0 3 0;
#X connect 1 0 5 0;
#X connect 1 0 7 0;
#X connect 2 0 4 0;
#X connect 2 0 5 1;
#X connect 2 0 7 1;
#X connect 5 0 9 0;
#X connect 5 0 11 0;
#X connect 6 0 11 1;
#X connect 6 0 9 1;
#X connect 7 0 10 0;
#X connect 7 0 12 0;
#X connect 8 0 10 1;
#X connect 8 0 12 1;
#X connect 9 0 15 0;
#X connect 10 0 14 0;
#X connect 11 0 13 0;
#X connect 12 0 16 0;
#X connect 13 0 27 0;
#X connect 14 0 21 0;
#X connect 15 0 20 0;
#X connect 16 0 22 0;
#X connect 17 0 16 1;
#X connect 17 0 15 1;
#X connect 17 0 14 1;
#X connect 17 0 13 1;
#X connect 18 0 19 0;
#X connect 19 0 17 0;
#X connect 23 0 1 1;
#X connect 24 0 2 1;
#X connect 25 0 6 1;
#X connect 25 0 8 1;
#X connect 26 0 6 0;
#X connect 26 0 8 0;
#X connect 28 0 29 0;
#X connect 28 1 29 1;
#X connect 29 0 30 0;
#X connect 29 1 30 1;
#X connect 30 0 31 0;
#X connect 30 1 31 1;
#X connect 31 0 32 0;
#X connect 31 1 32 1;
#X connect 32 0 33 0;
#X connect 32 1 33 1;
#X connect 33 0 1 0;
#X connect 33 1 2 0;
#X connect 34 0 18 0;
#X restore 121 571 pd reverb;
#X obj 438 118 hsl 128 15 0 90 0 0 dec decay Decay -2 -8 0 10 -262130
-1 -1 0 1;
#X floatatom 435 138 5 0 0 0 - - -;
#X obj 261 483 * 1.5708;
#X obj 261 517 cos;
#X obj 315 518 sin;
#X obj 261 542 t f f;
#X obj 315 542 t f f;
#X obj 261 570 * 1;
#X obj 315 569 * 1;
#X obj 261 614 line~;
#X obj 314 614 line~;
#X msg 261 592 \$1 20;
#X msg 315 591 \$1 20;
#X obj 439 185 hsl 128 15 0 100 0 0 xf mix Mix_(%) -2 -8 0 10 -262130
-1 -1 0 1;
#X floatatom 436 205 5 0 0 0 - - -;
#X obj 261 458 * 0.01;
#X text 18 23 7 Reverb;
#X obj 20 506 phasor~;
#X obj 79 506 phasor~;
#X obj 66 452 loadbang;
#X obj 20 533 -~;
#X msg 66 479 0;
#X msg 125 479 0.5;
#X obj 62 190 + 1;
#X obj 19 190 f;
#X obj 20 410 mtof;
#X obj 20 56 loadbang;
#X msg 20 105 1;
#X msg 101 127 0;
#X obj 19 257 t f b;
#X obj 20 130 metro 300;
#X obj 19 222 % 8;
#X msg 20 359 48;
#X msg 100 359 50;
#X obj 19 309 sel 0 1 2 3 4 5 6 7;
#X msg 60 359 52;
#X msg 140 359 53;
#X msg 220 359 55;
#X msg 260 359 53;
#X msg 300 359 57;
#X msg 180 359 52;
#X obj 121 649 *~;
#X obj 181 649 *~;
#X obj 61 649 *~;
#X obj 21 649 *~;
#X obj 121 606 *~ 0.25;
#X obj 181 606 *~ 0.25;
#X obj 88 700 dac~;
#X obj 261 433 r xf;
#X msg 149 85 \; pd dsp 1 \; decay 20 \; mix 50;
#X obj 467 70 r pyin_decay;
#X obj 493 153 r pyin_mix;
#X connect 0 0 46 0;
#X connect 0 1 47 0;
#X connect 1 0 2 0;
#X connect 3 0 4 0;
#X connect 3 0 5 0;
#X connect 4 0 6 0;
#X connect 5 0 7 0;
#X connect 6 0 8 0;
#X connect 6 1 8 1;
#X connect 7 0 9 0;
#X connect 7 1 9 1;
#X connect 8 0 12 0;
#X connect 9 0 13 0;
#X connect 10 0 45 1;
#X connect 10 0 44 1;
#X connect 11 0 42 1;
#X connect 11 0 43 1;
#X connect 12 0 10 0;
#X connect 13 0 11 0;
#X connect 14 0 15 0;
#X connect 16 0 3 0;
#X connect 18 0 21 0;
#X connect 19 0 21 1;
#X connect 20 0 23 0;
#X connect 20 0 22 0;
#X connect 21 0 45 0;
#X connect 21 0 44 0;
#X connect 21 0 0 0;
#X connect 22 0 18 1;
#X connect 23 0 19 1;
#X connect 24 0 25 1;
#X connect 25 0 24 0;
#X connect 25 0 32 0;
#X connect 26 0 18 0;
#X connect 26 0 19 0;
#X connect 27 0 28 0;
#X connect 27 0 29 0;
#X connect 27 0 50 0;
#X connect 28 0 31 0;
#X connect 29 0 25 1;
#X connect 30 0 35 0;
#X connect 31 0 25 0;
#X connect 32 0 30 0;
#X connect 33 0 26 0;
#X connect 34 0 26 0;
#X connect 35 0 33 0;
#X connect 35 1 36 0;
#X connect 35 2 34 0;
#X connect 35 3 37 0;
#X connect 35 4 41 0;
#X connect 35 5 38 0;
#X connect 35 6 39 0;
#X connect 35 7 40 0;
#X connect 36 0 26 0;
#X connect 37 0 26 0;
#X connect 38 0 26 0;
#X connect 39 0 26 0;
#X connect 40 0 26 0;
#X connect 41 0 26 0;
#X connect 42 0 48 0;
#X connect 43 0 48 1;
#X connect 44 0 48 1;
#X connect 45 0 48 0;
#X connect 46 0 42 0;
#X connect 47 0 43 0;
#X connect 49 0 16 0;
#X connect 51 0 1 0;
#X connect 52 0 14 0;
