#N canvas 540 0 1280 1348 10;
#X obj 184 673 osc~;
#X obj 183 588 line~;
#X obj 264 673 osc~;
#X obj 264 644 *~ 2;
#X obj 344 673 osc~;
#X obj 424 673 osc~;
#X obj 504 673 osc~;
#X obj 584 673 osc~;
#X obj 664 673 osc~;
#X obj 744 673 osc~;
#X obj 824 673 osc~;
#X obj 904 673 osc~;
#X obj 344 644 *~ 3;
#X obj 424 644 *~ 4;
#X obj 504 644 *~ 5;
#X obj 584 644 *~ 6;
#X obj 664 644 *~ 7;
#X obj 744 644 *~ 8;
#X obj 824 644 *~ 9;
#X obj 904 644 *~ 10;
#X obj 202 728 line~;
#X msg 202 701 \$1 100;
#X obj 184 756 *~;
#X obj 282 728 line~;
#X msg 282 701 \$1 100;
#X obj 264 756 *~;
#X obj 362 728 line~;
#X msg 362 701 \$1 100;
#X obj 344 756 *~;
#X obj 442 728 line~;
#X msg 442 701 \$1 100;
#X obj 424 756 *~;
#X obj 522 728 line~;
#X msg 522 701 \$1 100;
#X obj 504 756 *~;
#X obj 602 728 line~;
#X msg 602 701 \$1 100;
#X obj 584 756 *~;
#X obj 682 728 line~;
#X msg 682 701 \$1 100;
#X obj 664 756 *~;
#X obj 762 728 line~;
#X msg 762 701 \$1 100;
#X obj 744 756 *~;
#X obj 842 728 line~;
#X msg 842 701 \$1 100;
#X obj 824 756 *~;
#X obj 922 728 line~;
#X msg 922 701 \$1 100;
#X obj 904 756 *~;
#X obj 166 924 dac~;
#X obj 403 -842 vsl 15 128 0 1 0 0 empty f1 1 0 -9 0 10 -204786 -1
-1 12700 1;
#X floatatom 403 527 5 0 0 0 - - -;
#X obj 443 -843 vsl 15 128 0 1 0 0 empty f2 2 0 -9 0 10 -204786 -1
-1 0 1;
#X floatatom 443 527 5 0 0 0 - - -;
#X obj 483 -843 vsl 15 128 0 1 0 0 empty f3 3 0 -9 0 10 -204786 -1
-1 4191 1;
#X floatatom 483 527 5 0 0 0 - - -;
#X obj 523 -843 vsl 15 128 0 1 0 0 empty f4 4 0 -9 0 10 -204786 -1
-1 0 1;
#X floatatom 523 527 5 0 0 0 - - -;
#X obj 563 -843 vsl 15 128 0 1 0 0 empty f5 5 0 -9 0 10 -204786 -1
-1 2540 1;
#X floatatom 563 527 5 0 0 0 - - -;
#X obj 603 -843 vsl 15 128 0 1 0 0 empty f6 6 0 -9 0 10 -204786 -1
-1 0 1;
#X floatatom 603 527 5 0 0 0 - - -;
#X obj 643 -843 vsl 15 128 0 1 0 0 empty f7 7 0 -9 0 10 -204786 -1
-1 1778 1;
#X floatatom 643 527 5 0 0 0 - - -;
#X obj 683 -843 vsl 15 128 0 1 0 0 empty f8 8 0 -9 0 10 -204786 -1
-1 0 1;
#X floatatom 683 527 5 0 0 0 - - -;
#X obj 723 -843 vsl 15 128 0 1 0 0 empty f9 9 0 -9 0 10 -204786 -1
-1 1397 1;
#X floatatom 723 527 5 0 0 0 - - -;
#X obj 763 -843 vsl 15 128 0 1 0 0 empty f10 10 0 -9 0 10 -204786 -1
-1 0 1;
#X floatatom 763 527 5 0 0 0 - - -;
#X obj 40 691 key;
#X obj 103 691 keyup;
#X obj 34 794 line~;
#X obj 103 740 pipe 20;
#X obj 186 467 hsl 128 15 45 57 0 0 empty empty empty -2 -8 0 10 -262144
-1 -1 0 1;
#X floatatom 183 519 5 0 0 0 - - -;
#X obj 183 541 mtof;
#X obj 166 834 *~;
#X text 182 452 A2;
#X text 298 452 A3;
#X text 1113 392 square;
#X text 987 394 sine;
#X text 1041 391 triangle;
#X obj 40 717 sel 32;
#X obj 103 717 sel 32;
#X text 64 691 space;
#X obj 302 839 *~;
#X obj 863 -845 vsl 15 128 0 1 0 0 empty f11 noise 0 -9 0 10 -204786
-1 -1 0 1;
#X floatatom 863 564 5 0 0 0 - - -;
#X obj 1036 729 line~;
#X msg 1036 702 \$1 100;
#X obj 1018 757 *~;
#X obj 1018 674 noise~;
#X msg 103 761 0 3000;
#X obj 99 468 loadbang;
#X msg 122 493 45;
#X msg 99 525 \; pd dsp 1;
#X obj 166 861 *~ 0.1;
#X obj 301 867 *~ 0.01;
#X obj 403 548 s t1;
#X obj 443 548 s t2;
#X obj 483 548 s t3;
#X obj 523 548 s t4;
#X obj 563 548 s t5;
#X obj 603 548 s t6;
#X obj 643 548 s t7;
#X obj 683 548 s t8;
#X obj 723 548 s t9;
#X obj 763 548 s t10;
#X obj 206 -189 bng 15 250 50 0 empty empty empty 17 7 0 10 -262144
-1 -1;
#X obj 1033 368 loadbang;
#X msg 40 740 0.3 10;
#X msg 34 390 45;
#X msg 74 390 49;
#X msg 114 390 52;
#X msg 154 390 56;
#X obj 22 561 pipe 20;
#X msg 22 582 0 3000;
#X msg 7 537 0.3 10;
#X obj 74 362 delay 250;
#X obj 114 336 delay 500;
#X obj 154 311 delay 750;
#X obj 194 291 delay 1000;
#X msg 353 389 45;
#X obj 233 271 delay 1250;
#X obj 273 245 delay 1500;
#X obj 313 220 delay 1750;
#X obj 353 200 delay 2000;
#X msg 233 389 61;
#X msg 273 389 64;
#X msg 313 389 68;
#X msg 194 390 57;
#X msg 183 565 \$1 10;
#N canvas 0 50 781 586 (subpatch) 0;
#X array waveform 882 float 4;
#X coords 0 5 881 -5 400 130 1 0 0;
#X restore 403 -1249 graph;
#X obj 464 890 bng 18 250 50 0 empty empty empty 0 -6 0 8 -262144 -1
-1;
#X obj 466 802 loadbang;
#X obj 466 849 tgl 15 0 empty empty empty 17 7 0 10 -262144 -1 -1 1
1;
#X msg 466 823 1;
#X text 1186 394 1/n;
#X text 1249 394 m fund;
#N canvas 0 50 450 300 (subpatch) 0;
#X array spectrum 128 float 0;
#X coords 0 4300 127 -40 400 130 1 0 0;
#X restore 402 -1040 graph;
#N canvas 42 101 558 569 fft 0;
#X obj 19 62 inlet~;
#X obj 85 214 inlet;
#X obj 19 92 rfft~;
#X obj 19 125 *~;
#X obj 50 125 *~;
#X obj 19 155 sqrt~;
#X obj 332 109 block~ 4096 1;
#X obj 19 181 biquad~ 0 0 0 0 1;
#X text 83 93 Fourier series;
#X text 88 146 magnitude;
#X text 86 131 calculate;
#X text 21 3 This subpatch computes the spectrum of the incoming signal
with a (rectangular windowed) FFT. FFTs aren't properly introduced
until much later.;
#X text 83 62 signal to analyze;
#X text 182 166 delay two samples;
#X text 181 182 for better graphing;
#X obj 90 425 samplerate~;
#X obj 90 402 bng 18 250 50 0 empty empty empty 0 -6 0 8 -262144 -1
-1;
#X floatatom 90 472 5 0 0 0 - - -;
#X obj 90 448 / 256;
#X obj 90 378 loadbang;
#X floatatom 90 541 5 0 0 0 - - -;
#X obj 98 494 s fundamental;
#X obj 90 517 ftom;
#X text 146 540 <-just out of curiosity \, here's the pitch;
#X text 14 319 At load time \, calculate a good choice of fundamental
frequency for showing spectra: the 16th bin in a 4096-point spectrum
\, so SR*16/4096 or SR/256.;
#X text 135 216 "bang" into this inlet to graph it;
#X obj 85 248 tabwrite~ spectrum;
#X connect 0 0 2 0;
#X connect 1 0 26 0;
#X connect 2 0 3 0;
#X connect 2 0 3 1;
#X connect 2 1 4 0;
#X connect 2 1 4 1;
#X connect 3 0 5 0;
#X connect 4 0 5 0;
#X connect 5 0 7 0;
#X connect 7 0 26 0;
#X connect 15 0 18 0;
#X connect 16 0 15 0;
#X connect 17 0 21 0;
#X connect 17 0 22 0;
#X connect 18 0 17 0;
#X connect 19 0 16 0;
#X connect 22 0 20 0;
#X restore 368 926 pd fft;
#X obj 206 -234 key;
#X obj 206 -210 sel 109;
#X obj 219 861 *~ 3;
#X obj 372 866 *~ 0.3;
#N canvas 288 158 450 393 whole 0;
#X obj 159 51 inlet;
#X obj 256 236 + 1;
#X msg 233 201 1;
#X obj 167 110 tgl 15 0 empty empty empty 17 7 0 10 -262144 -1 -1 0
1;
#X msg 159 82 1;
#X obj 215 236 f;
#X obj 321 249 sel 1;
#X msg 195 79 0;
#X obj 94 317 outlet;
#X obj 151 186 t b b;
#X obj 94 268 f;
#X obj 135 268 + 2;
#X msg 112 233 36;
#X obj 72 161 loadbang;
#X obj 215 262 > 25;
#X obj 167 132 metro 120;
#X connect 0 0 4 0;
#X connect 1 0 5 1;
#X connect 2 0 5 1;
#X connect 3 0 15 0;
#X connect 4 0 3 0;
#X connect 5 0 1 0;
#X connect 5 0 14 0;
#X connect 6 0 7 0;
#X connect 6 0 2 0;
#X connect 6 0 12 0;
#X connect 7 0 3 0;
#X connect 9 0 10 0;
#X connect 9 1 5 0;
#X connect 10 0 11 0;
#X connect 10 0 8 0;
#X connect 11 0 10 1;
#X connect 12 0 10 1;
#X connect 13 0 12 0;
#X connect 14 0 6 0;
#X connect 15 0 9 0;
#X restore 234 -13 pd whole;
#X obj 383 170 delay 2250;
#X msg 986 411 \; f1 1 \; f2 0 \; f3 0 \; f4 0 \; f5 0 \; f6 0 \; f7
0 \; f8 0 \; f9 0 \; f10 0 \; f11 0;
#X msg 1033 411 \; f1 1 \; f2 0 \; f3 0.33 \; f4 0 \; f5 0.2 \; f6
0 \; f7 0.14 \; f8 0 \; f9 0.11 \; f10 0 \; f11 0;
#X msg 1103 411 \; f1 1 \; f2 0 \; f3 -0.33 \; f4 0 \; f5 0.2 \; f6
0 \; f7 -0.14 \; f8 0 \; f9 0.11 \; f10 0 \; f11 0;
#X msg 1177 411 \; f1 1 \; f2 0.5 \; f3 0.33 \; f4 0.25 \; f5 0.2 \;
f6 0.166 \; f7 0.14 \; f8 0.125 \; f9 0.11 \; f10 0.1 \; f11 0;
#X msg 1248 411 \; f1 0 \; f2 0.5 \; f3 0.33 \; f4 0.25 \; f5 0.2 \;
f6 0.166 \; f7 0.14 \; f8 0.125 \; f9 0.11 \; f10 0.1 \; f11 0;
#X text 1337 394 6;
#X msg 1328 411 \; f1 0.6 \; f2 0.5 \; f3 0.33 \; f4 0.25 \; f5 0.2
\; f6 0.166 \; f7 0.14 \; f8 0.125 \; f9 0.11 \; f10 0.1 \; f11 0.5
;
#X text 1417 394 7;
#X msg 1408 411 \; f1 0.4 \; f2 0.4 \; f3 0.4 \; f4 0.3 \; f5 0.3 \;
f6 0.3 \; f7 0.1 \; f8 0.1 \; f9 0.1 \; f10 0.1 \; f11 0.7;
#X obj 986 -6 ctlin 77;
#X floatatom 986 44 5 0 0 0 - - -;
#X obj 986 19 / 127;
#X obj 986 68 s f1;
#X floatatom 1056 44 5 0 0 0 - - -;
#X obj 1056 19 / 127;
#X floatatom 1126 44 5 0 0 0 - - -;
#X obj 1126 19 / 127;
#X floatatom 1196 44 5 0 0 0 - - -;
#X obj 1196 19 / 127;
#X floatatom 1266 44 5 0 0 0 - - -;
#X obj 1266 19 / 127;
#X floatatom 1336 44 5 0 0 0 - - -;
#X obj 1336 19 / 127;
#X floatatom 1406 44 5 0 0 0 - - -;
#X obj 1406 19 / 127;
#X floatatom 1476 44 5 0 0 0 - - -;
#X obj 1476 19 / 127;
#X floatatom 1546 44 5 0 0 0 - - -;
#X obj 1546 19 / 127;
#X floatatom 1616 44 5 0 0 0 - - -;
#X obj 1616 19 / 127;
#X obj 1056 67 s f2;
#X obj 1126 68 s f3;
#X obj 1196 68 s f4;
#X obj 1266 68 s f5;
#X obj 1336 68 s f6;
#X obj 1406 68 s f7;
#X obj 1476 68 s f8;
#X obj 1546 68 s f9;
#X obj 1616 68 s f10;
#X obj 1056 -6 ctlin 78;
#X obj 1125 -6 ctlin 79;
#X obj 1196 -6 ctlin 80;
#X obj 1266 -6 ctlin 81;
#X obj 1336 -6 ctlin 82;
#X obj 1406 -6 ctlin 83;
#X obj 1476 -6 ctlin 84;
#X obj 1546 -6 ctlin 49;
#X obj 1616 -6 ctlin 50;
#X obj 55 -156 notein;
#X obj 55 -131 pack 0 0;
#X obj 54 -43 bng 15 250 50 0 empty empty empty 17 7 0 10 -262144 -1
-1;
#X obj 55 -65 sel 127;
#X obj 55 -107 route 73 74 75 76 89 90 91 92;
#N canvas 2 125 887 300 server 0;
#X obj 249 107 r t1;
#X obj 289 107 r t2;
#X obj 329 107 r t3;
#X obj 369 107 r t4;
#X obj 409 107 r t5;
#X obj 449 107 r t6;
#X obj 489 107 r t7;
#X obj 529 107 r t8;
#X obj 569 107 r t9;
#X obj 609 107 r t10;
#X obj 232 54 r id;
#X obj 214 88 i;
#X obj 214 204 pack 0 1 0 0 0 0 0 0 0 0 0 0;
#X obj 214 53 bng 15 250 50 0 empty empty empty 17 7 0 10 -262144 -1
-1;
#X obj 214 233 print message to server;
#X text 273 55 receive (unknown) ID token;
#X obj 214 26 inlet;
#X obj 723 38 loadbang;
#X msg 723 71 \; id 1;
#X connect 0 0 12 2;
#X connect 1 0 12 3;
#X connect 2 0 12 4;
#X connect 3 0 12 5;
#X connect 4 0 12 6;
#X connect 5 0 12 7;
#X connect 6 0 12 8;
#X connect 7 0 12 9;
#X connect 8 0 12 10;
#X connect 9 0 12 11;
#X connect 10 0 11 1;
#X connect 11 0 12 0;
#X connect 12 0 14 0;
#X connect 13 0 11 0;
#X connect 16 0 13 0;
#X connect 17 0 18 0;
#X restore 206 -164 pd server;
#X obj 301 -43 bng 15 250 50 0 empty empty empty 17 7 0 10 -262144
-1 -1;
#X obj 301 -65 sel 127;
#X obj 298 27 line;
#X msg 299 -8 45;
#X obj 337 -34 del 10;
#X msg 337 -8 69 2000;
#X obj 183 492 f;
#X obj 987 120 notein;
#X obj 987 145 pack 0 0;
#X obj 1045 238 bng 15 250 50 0 empty empty empty 17 7 0 10 -262144
-1 -1;
#X obj 1046 216 sel 127;
#X obj 1103 238 bng 15 250 50 0 empty empty empty 17 7 0 10 -262144
-1 -1;
#X obj 1103 216 sel 127;
#X obj 986 239 bng 15 250 50 0 empty empty empty 17 7 0 10 -262144
-1 -1;
#X obj 987 217 sel 127;
#X obj 114 -43 bng 15 250 50 0 empty empty empty 17 7 0 10 -262144
-1 -1;
#X obj 115 -65 sel 127;
#X obj 174 -43 bng 15 250 50 0 empty empty empty 17 7 0 10 -262144
-1 -1;
#X obj 175 -65 sel 127;
#X obj 234 -43 bng 15 250 50 0 empty empty empty 17 7 0 10 -262144
-1 -1;
#X obj 235 -65 sel 127;
#X obj 1163 238 bng 15 250 50 0 empty empty empty 17 7 0 10 -262144
-1 -1;
#X obj 1163 216 sel 127;
#X obj 1279 236 bng 15 250 50 0 empty empty empty 17 7 0 10 -262144
-1 -1;
#X obj 1280 214 sel 127;
#X obj 1337 236 bng 15 250 50 0 empty empty empty 17 7 0 10 -262144
-1 -1;
#X obj 1337 214 sel 127;
#X obj 1220 237 bng 15 250 50 0 empty empty empty 17 7 0 10 -262144
-1 -1;
#X obj 1221 215 sel 127;
#N canvas 480 154 450 393 rdm 0;
#X obj 159 51 inlet;
#X obj 256 236 + 1;
#X obj 151 186 t i b;
#X msg 233 201 1;
#X obj 167 110 tgl 15 0 empty empty empty 17 7 0 10 -262144 -1 -1 0
1;
#X msg 159 81 1;
#X obj 215 236 f;
#X obj 216 293 sel 1;
#X msg 195 79 0;
#X obj 150 256 outlet;
#X obj 151 223 + 36;
#X obj 152 157 random 24;
#X floatatom 62 256 5 0 0 0 - - -;
#X obj 215 262 > 10;
#X obj 167 131 metro 180;
#X connect 0 0 5 0;
#X connect 1 0 6 1;
#X connect 2 0 10 0;
#X connect 2 1 6 0;
#X connect 3 0 6 1;
#X connect 4 0 14 0;
#X connect 5 0 4 0;
#X connect 6 0 1 0;
#X connect 6 0 13 0;
#X connect 7 0 8 0;
#X connect 7 0 3 0;
#X connect 8 0 4 0;
#X connect 10 0 9 0;
#X connect 10 0 12 0;
#X connect 11 0 2 0;
#X connect 13 0 7 0;
#X connect 14 0 11 0;
#X restore 174 -13 pd rdm;
#X text 323 -860 harmonics:;
#X text 401 -1112 time ------>;
#X text 400 -907 20Hz frequency 20000Hz;
#X obj 465 920 tabwrite~ waveform;
#X obj 401 -43 bng 15 250 50 0 empty empty empty 17 7 0 10 -262144
-1 -1;
#X obj 401 -65 sel 127;
#X obj 398 27 line;
#X msg 399 -8 45;
#X obj 437 -34 del 10;
#X msg 437 -8 69 500;
#X obj 464 868 metro 118.5;
#X text 336 -1193 amplitude;
#X text 363 -981 power;
#X text 399 -1293 3 Additive Synthesis;
#X text 819 -1287 [spacebar] for note;
#X obj 822 -1232 vradio 15 1 0 7 radio empty empty 0 -8 0 10 -262130
-1 -1 4;
#X text 843 -1232 sine;
#X text 842 -1216 triangle;
#X text 842 -1202 square;
#X text 841 -1188 1/n;
#X text 841 -1157 random 1;
#X text 841 -1144 random 2;
#X obj 917 259 r radio;
#X obj 917 292 sel 0 1 2 3 4 5 6;
#X obj 987 170 route 41 42 43 44 57 58 59;
#X text 842 -1173 1/n missing fundamental;
#X obj 889 -306 r pyin_h1;
#X obj 960 -299 r pyin_h2;
#X obj 1030 -304 r pyin_h3;
#X obj 30 -220 r pyin_play_note;
#X obj 1024 -250 r pyin_h4;
#X obj 1024 -229 r pyin_h5;
#X obj 1024 -187 r pyin_h7;
#X obj 1024 -208 r pyin_h6;
#X obj 1024 -166 r pyin_h8;
#X obj 1024 -145 r pyin_h9;
#X obj 1027 -124 r pyin_h10;
#X obj 50 -192 r pyin_play_rand;
#X connect 0 0 22 0;
#X connect 1 0 0 0;
#X connect 1 0 3 0;
#X connect 1 0 12 0;
#X connect 1 0 13 0;
#X connect 1 0 14 0;
#X connect 1 0 15 0;
#X connect 1 0 16 0;
#X connect 1 0 17 0;
#X connect 1 0 18 0;
#X connect 1 0 19 0;
#X connect 2 0 25 0;
#X connect 3 0 2 0;
#X connect 4 0 28 0;
#X connect 5 0 31 0;
#X connect 6 0 34 0;
#X connect 7 0 37 0;
#X connect 8 0 40 0;
#X connect 9 0 43 0;
#X connect 10 0 46 0;
#X connect 11 0 49 0;
#X connect 12 0 4 0;
#X connect 13 0 5 0;
#X connect 14 0 6 0;
#X connect 15 0 7 0;
#X connect 16 0 8 0;
#X connect 17 0 9 0;
#X connect 18 0 10 0;
#X connect 19 0 11 0;
#X connect 20 0 22 1;
#X connect 21 0 20 0;
#X connect 22 0 78 1;
#X connect 23 0 25 1;
#X connect 24 0 23 0;
#X connect 25 0 78 1;
#X connect 26 0 28 1;
#X connect 27 0 26 0;
#X connect 28 0 78 1;
#X connect 29 0 31 1;
#X connect 30 0 29 0;
#X connect 31 0 78 1;
#X connect 32 0 34 1;
#X connect 33 0 32 0;
#X connect 34 0 78 1;
#X connect 35 0 37 1;
#X connect 36 0 35 0;
#X connect 37 0 78 1;
#X connect 38 0 40 1;
#X connect 39 0 38 0;
#X connect 40 0 78 1;
#X connect 41 0 43 1;
#X connect 42 0 41 0;
#X connect 43 0 78 1;
#X connect 44 0 46 1;
#X connect 45 0 44 0;
#X connect 46 0 78 1;
#X connect 47 0 49 1;
#X connect 48 0 47 0;
#X connect 49 0 78 1;
#X connect 51 0 52 0;
#X connect 52 0 21 0;
#X connect 52 0 100 0;
#X connect 53 0 54 0;
#X connect 54 0 24 0;
#X connect 54 0 101 0;
#X connect 55 0 56 0;
#X connect 56 0 27 0;
#X connect 56 0 102 0;
#X connect 57 0 58 0;
#X connect 58 0 30 0;
#X connect 58 0 103 0;
#X connect 59 0 60 0;
#X connect 60 0 33 0;
#X connect 60 0 104 0;
#X connect 61 0 62 0;
#X connect 62 0 36 0;
#X connect 62 0 105 0;
#X connect 63 0 64 0;
#X connect 64 0 39 0;
#X connect 64 0 106 0;
#X connect 65 0 66 0;
#X connect 66 0 42 0;
#X connect 66 0 107 0;
#X connect 67 0 68 0;
#X connect 68 0 45 0;
#X connect 68 0 108 0;
#X connect 69 0 70 0;
#X connect 70 0 48 0;
#X connect 70 0 109 0;
#X connect 71 0 84 0;
#X connect 72 0 85 0;
#X connect 73 0 78 0;
#X connect 73 0 87 0;
#X connect 74 0 94 0;
#X connect 75 0 210 0;
#X connect 76 0 77 0;
#X connect 77 0 133 0;
#X connect 78 0 98 0;
#X connect 78 0 145 0;
#X connect 84 0 112 0;
#X connect 85 0 74 0;
#X connect 87 0 99 0;
#X connect 87 0 146 0;
#X connect 88 0 89 0;
#X connect 89 0 91 0;
#X connect 90 0 92 1;
#X connect 91 0 90 0;
#X connect 92 0 87 1;
#X connect 93 0 92 0;
#X connect 94 0 73 0;
#X connect 95 0 96 0;
#X connect 95 0 97 0;
#X connect 96 0 75 0;
#X connect 98 0 50 0;
#X connect 98 0 50 1;
#X connect 99 0 50 0;
#X connect 99 0 50 1;
#X connect 110 0 203 0;
#X connect 111 0 150 0;
#X connect 112 0 73 0;
#X connect 113 0 75 0;
#X connect 114 0 75 0;
#X connect 115 0 75 0;
#X connect 116 0 75 0;
#X connect 117 0 118 0;
#X connect 118 0 73 0;
#X connect 119 0 73 0;
#X connect 120 0 114 0;
#X connect 121 0 115 0;
#X connect 123 0 129 0;
#X connect 124 0 75 0;
#X connect 125 0 132 0;
#X connect 127 0 130 0;
#X connect 128 0 131 0;
#X connect 129 0 75 0;
#X connect 130 0 75 0;
#X connect 131 0 75 0;
#X connect 132 0 75 0;
#X connect 133 0 1 0;
#X connect 135 0 142 1;
#X connect 135 0 237 0;
#X connect 136 0 138 0;
#X connect 137 0 244 0;
#X connect 138 0 137 0;
#X connect 143 0 144 0;
#X connect 144 0 110 0;
#X connect 145 0 142 0;
#X connect 145 0 237 0;
#X connect 146 0 142 0;
#X connect 146 0 237 0;
#X connect 147 0 75 0;
#X connect 148 0 124 0;
#X connect 158 0 160 0;
#X connect 159 0 161 0;
#X connect 160 0 159 0;
#X connect 162 0 180 0;
#X connect 163 0 162 0;
#X connect 164 0 181 0;
#X connect 165 0 164 0;
#X connect 166 0 182 0;
#X connect 167 0 166 0;
#X connect 168 0 183 0;
#X connect 169 0 168 0;
#X connect 170 0 184 0;
#X connect 171 0 170 0;
#X connect 172 0 185 0;
#X connect 173 0 172 0;
#X connect 174 0 186 0;
#X connect 175 0 174 0;
#X connect 176 0 187 0;
#X connect 177 0 176 0;
#X connect 178 0 188 0;
#X connect 179 0 178 0;
#X connect 189 0 163 0;
#X connect 190 0 165 0;
#X connect 191 0 167 0;
#X connect 192 0 169 0;
#X connect 193 0 171 0;
#X connect 194 0 173 0;
#X connect 195 0 175 0;
#X connect 196 0 177 0;
#X connect 197 0 179 0;
#X connect 198 0 199 0;
#X connect 198 1 199 1;
#X connect 199 0 202 0;
#X connect 200 0 112 0;
#X connect 200 0 74 0;
#X connect 200 0 113 0;
#X connect 201 0 200 0;
#X connect 202 0 201 0;
#X connect 202 1 220 0;
#X connect 202 2 222 0;
#X connect 202 3 224 0;
#X connect 202 4 205 0;
#X connect 202 5 239 0;
#X connect 204 0 119 0;
#X connect 204 0 117 0;
#X connect 204 0 207 0;
#X connect 204 0 208 0;
#X connect 205 0 204 0;
#X connect 206 0 75 0;
#X connect 207 0 206 0;
#X connect 208 0 209 0;
#X connect 209 0 206 0;
#X connect 210 0 76 0;
#X connect 211 0 212 0;
#X connect 211 1 212 1;
#X connect 212 0 258 0;
#X connect 213 0 150 0;
#X connect 214 0 213 0;
#X connect 215 0 151 0;
#X connect 216 0 215 0;
#X connect 217 0 149 0;
#X connect 218 0 217 0;
#X connect 219 0 119 0;
#X connect 219 0 117 0;
#X connect 219 0 113 0;
#X connect 219 0 120 0;
#X connect 219 0 121 0;
#X connect 219 0 122 0;
#X connect 219 0 123 0;
#X connect 219 0 125 0;
#X connect 219 0 126 0;
#X connect 219 0 127 0;
#X connect 219 0 128 0;
#X connect 219 0 148 0;
#X connect 220 0 219 0;
#X connect 221 0 119 0;
#X connect 221 0 117 0;
#X connect 221 0 233 0;
#X connect 222 0 221 0;
#X connect 223 0 119 0;
#X connect 223 0 117 0;
#X connect 223 0 147 0;
#X connect 224 0 223 0;
#X connect 225 0 152 0;
#X connect 226 0 225 0;
#X connect 227 0 155 0;
#X connect 228 0 227 0;
#X connect 229 0 157 0;
#X connect 230 0 229 0;
#X connect 231 0 153 0;
#X connect 232 0 231 0;
#X connect 233 0 75 0;
#X connect 238 0 241 0;
#X connect 238 0 242 0;
#X connect 238 0 119 0;
#X connect 238 0 117 0;
#X connect 239 0 238 0;
#X connect 240 0 75 0;
#X connect 241 0 240 0;
#X connect 242 0 243 0;
#X connect 243 0 240 0;
#X connect 244 0 135 0;
#X connect 256 0 257 0;
#X connect 257 0 149 0;
#X connect 257 1 150 0;
#X connect 257 2 151 0;
#X connect 257 3 152 0;
#X connect 257 4 153 0;
#X connect 257 5 155 0;
#X connect 257 6 157 0;
#X connect 258 0 218 0;
#X connect 258 1 214 0;
#X connect 258 2 216 0;
#X connect 258 3 226 0;
#X connect 258 4 232 0;
#X connect 258 5 228 0;
#X connect 258 6 230 0;
#X connect 260 0 52 0;
#X connect 261 0 54 0;
#X connect 262 0 56 0;
#X connect 263 0 200 0;
#X connect 264 0 58 0;
#X connect 265 0 60 0;
#X connect 266 0 64 0;
#X connect 267 0 62 0;
#X connect 268 0 66 0;
#X connect 269 0 68 0;
#X connect 270 0 70 0;
#X connect 271 0 219 0;
