#N canvas 475 506 869 743 10;
#N canvas 27 23 1253 755 additive 0;
#X obj 233 461 osc~;
#X obj 313 461 osc~;
#X obj 313 432 *~ 2;
#X obj 393 461 osc~;
#X obj 473 461 osc~;
#X obj 553 461 osc~;
#X obj 633 461 osc~;
#X obj 713 461 osc~;
#X obj 793 461 osc~;
#X obj 393 432 *~ 3;
#X obj 473 432 *~ 4;
#X obj 553 432 *~ 5;
#X obj 633 432 *~ 6;
#X obj 713 432 *~ 7;
#X obj 793 432 *~ 8;
#X obj 251 516 line~;
#X obj 233 544 *~;
#X obj 331 516 line~;
#X obj 313 544 *~;
#X obj 411 516 line~;
#X obj 393 544 *~;
#X obj 491 516 line~;
#X obj 473 544 *~;
#X obj 571 516 line~;
#X obj 553 544 *~;
#X obj 651 516 line~;
#X obj 633 544 *~;
#X obj 731 516 line~;
#X obj 713 544 *~;
#X obj 811 516 line~;
#X obj 793 544 *~;
#X obj 452 46 vsl 15 128 0 1 0 0 empty H01 H01 0 -9 0 10 -204786 -1
-1 0 1;
#X floatatom 452 205 5 0 0 0 - - -;
#X obj 492 45 vsl 15 128 0 1 0 0 empty H02 H02 0 -9 0 10 -204786 -1
-1 0 1;
#X floatatom 492 205 5 0 0 0 - - -;
#X obj 532 45 vsl 15 128 0 1 0 0 empty H03 H03 0 -9 0 10 -204786 -1
-1 0 1;
#X floatatom 532 205 5 0 0 0 - - -;
#X obj 572 45 vsl 15 128 0 1 0 0 empty H04 H04 0 -9 0 10 -204786 -1
-1 0 1;
#X floatatom 572 205 5 0 0 0 - - -;
#X obj 612 45 vsl 15 128 0 1 0 0 empty H05 H05 0 -9 0 10 -204786 -1
-1 0 1;
#X floatatom 612 205 5 0 0 0 - - -;
#X obj 652 45 vsl 15 128 0 1 0 0 empty H06 H06 0 -9 0 10 -204786 -1
-1 0 1;
#X floatatom 652 205 5 0 0 0 - - -;
#X obj 692 45 vsl 15 128 0 1 0 0 empty H07 H07 0 -9 0 10 -204786 -1
-1 0 1;
#X floatatom 692 205 5 0 0 0 - - -;
#X obj 732 45 vsl 15 128 0 1 0 0 empty H08 H08 0 -9 0 10 -204786 -1
-1 0 1;
#X floatatom 732 205 5 0 0 0 - - -;
#X obj 147 286 mtof;
#X obj 233 651 outlet~;
#X obj 147 39 vsl 15 128 0 1 0 0 empty freq freq 0 -9 0 10 -204786
-1 -1 0 1;
#N canvas 187 23 665 405 diatonic 0;
#X obj 108 31 inlet;
#X obj 108 58 * 8;
#X obj 108 84 int;
#X obj 108 254 outlet;
#X obj 108 110 sel 0 1 2 3 4 5 6 7 8;
#X msg 108 185 0;
#X msg 140 185 2;
#X msg 173 185 4;
#X msg 205 185 5;
#X msg 237 185 7;
#X msg 269 185 9;
#X msg 302 185 11;
#X msg 334 185 12;
#X text 141 85 <- change to round;
#X obj 108 222 + 60;
#X connect 0 0 1 0;
#X connect 1 0 2 0;
#X connect 2 0 4 0;
#X connect 4 0 5 0;
#X connect 4 1 6 0;
#X connect 4 2 7 0;
#X connect 4 3 8 0;
#X connect 4 4 9 0;
#X connect 4 5 10 0;
#X connect 4 6 11 0;
#X connect 4 7 12 0;
#X connect 4 8 12 0;
#X connect 5 0 14 0;
#X connect 6 0 14 0;
#X connect 7 0 14 0;
#X connect 8 0 14 0;
#X connect 9 0 14 0;
#X connect 10 0 14 0;
#X connect 11 0 14 0;
#X connect 12 0 14 0;
#X connect 14 0 3 0;
#X restore 147 233 pd diatonic;
#X floatatom 147 199 5 0 0 0 - - -;
#X floatatom 147 259 5 0 0 0 - - -;
#X obj 253 34 hsl 128 15 0 1 0 0 empty LFOPitchRate LFOPitchRate -2
-8 0 10 -262130 -1 -1 0 1;
#X obj 271 228 hsl 128 15 0 1 0 0 empty LFOPitchDepth LFOPitchDepth
-2 -8 0 10 -262130 -1 -1 0 1;
#X obj 232 386 +~;
#X obj 147 346 line~;
#X obj 250 348 *~;
#X obj 268 317 line~;
#X obj 250 189 osc~;
#X floatatom 250 112 5 0 0 0 - - -;
#X obj 250 160 line~;
#X obj 268 260 * 3;
#X obj 250 85 + 1;
#X obj 250 59 * 11;
#X obj 72 224 r midi;
#X msg 251 489 \$1 50;
#X msg 331 489 \$1 50;
#X msg 411 489 \$1 50;
#X msg 491 489 \$1 50;
#X msg 571 489 \$1 50;
#X msg 651 489 \$1 50;
#X msg 731 489 \$1 50;
#X msg 811 489 \$1 50;
#X msg 147 310 \$1 20;
#X msg 250 135 \$1 20;
#X msg 268 293 \$1 20;
#X obj 233 622 *~ 0.1;
#X obj 330 334 * 2;
#X connect 0 0 16 0;
#X connect 1 0 18 0;
#X connect 2 0 1 0;
#X connect 3 0 20 0;
#X connect 4 0 22 0;
#X connect 5 0 24 0;
#X connect 6 0 26 0;
#X connect 7 0 28 0;
#X connect 8 0 30 0;
#X connect 9 0 3 0;
#X connect 10 0 4 0;
#X connect 11 0 5 0;
#X connect 12 0 6 0;
#X connect 13 0 7 0;
#X connect 14 0 8 0;
#X connect 15 0 16 1;
#X connect 16 0 77 0;
#X connect 17 0 18 1;
#X connect 18 0 77 0;
#X connect 19 0 20 1;
#X connect 20 0 77 0;
#X connect 21 0 22 1;
#X connect 22 0 77 0;
#X connect 23 0 24 1;
#X connect 24 0 77 0;
#X connect 25 0 26 1;
#X connect 26 0 77 0;
#X connect 27 0 28 1;
#X connect 28 0 77 0;
#X connect 29 0 30 1;
#X connect 30 0 77 0;
#X connect 31 0 32 0;
#X connect 32 0 78 0;
#X connect 33 0 34 0;
#X connect 34 0 67 0;
#X connect 35 0 36 0;
#X connect 36 0 68 0;
#X connect 37 0 38 0;
#X connect 38 0 69 0;
#X connect 39 0 40 0;
#X connect 40 0 70 0;
#X connect 41 0 42 0;
#X connect 42 0 71 0;
#X connect 43 0 44 0;
#X connect 44 0 72 0;
#X connect 45 0 46 0;
#X connect 46 0 73 0;
#X connect 47 0 74 0;
#X connect 49 0 51 0;
#X connect 50 0 52 0;
#X connect 51 0 50 0;
#X connect 52 0 47 0;
#X connect 53 0 64 0;
#X connect 54 0 62 0;
#X connect 55 0 0 0;
#X connect 55 0 2 0;
#X connect 55 0 9 0;
#X connect 55 0 10 0;
#X connect 55 0 11 0;
#X connect 55 0 12 0;
#X connect 55 0 13 0;
#X connect 55 0 14 0;
#X connect 56 0 55 0;
#X connect 57 0 55 1;
#X connect 58 0 57 1;
#X connect 59 0 57 0;
#X connect 60 0 75 0;
#X connect 61 0 59 0;
#X connect 62 0 76 0;
#X connect 63 0 60 0;
#X connect 64 0 63 0;
#X connect 65 0 52 0;
#X connect 66 0 15 0;
#X connect 67 0 17 0;
#X connect 68 0 19 0;
#X connect 69 0 21 0;
#X connect 70 0 23 0;
#X connect 71 0 25 0;
#X connect 72 0 27 0;
#X connect 73 0 29 0;
#X connect 74 0 56 0;
#X connect 75 0 61 0;
#X connect 76 0 58 0;
#X connect 77 0 48 0;
#X connect 78 0 66 0;
#X restore 36 78 pd additive;
#X text 37 21 Synthesizer Exhibit Audio Engine;
#N canvas 0 23 1213 732 filter 0;
#X obj 157 161 inlet~;
#X obj 149 538 outlet~;
#X floatatom 318 221 5 0 0 0 - - -;
#X floatatom 168 222 5 0 0 0 - - -;
#X obj 171 199 hsl 128 15 0 1 0 0 empty centerFreq centerFreq -2 -8
0 10 -262130 -1 -1 0 1;
#X obj 321 200 hsl 128 15 0 1 0 0 empty Q Q -2 -8 0 10 -262130 -1 -1
0 1;
#X obj 157 401 vcf~;
#X msg 168 302 \$1 100;
#X obj 169 358 sig~;
#X obj 168 326 line;
#X obj 168 271 + 100;
#X obj 168 245 * 1900;
#X obj 318 246 * 7;
#X obj 318 272 + 0.4;
#X obj 481 199 hsl 128 15 0 1 0 0 empty filterMix filterMix -2 -8 0
10 -262130 -1 -1 0 1;
#X obj 111 432 *~;
#X obj 157 431 *~;
#X obj 504 276 expr 1-$f1;
#X obj 478 248 line;
#X msg 478 222 \$1 100;
#X obj 388 134 +;
#X obj 385 98 t b f;
#X obj 388 155 != 0;
#X text 453 111 threshold;
#X connect 0 0 6 0;
#X connect 0 0 15 0;
#X connect 2 0 12 0;
#X connect 3 0 11 0;
#X connect 4 0 3 0;
#X connect 4 0 20 0;
#X connect 5 0 2 0;
#X connect 5 0 21 0;
#X connect 6 0 16 0;
#X connect 7 0 9 0;
#X connect 8 0 6 1;
#X connect 9 0 8 0;
#X connect 10 0 7 0;
#X connect 11 0 10 0;
#X connect 12 0 13 0;
#X connect 13 0 6 2;
#X connect 14 0 19 0;
#X connect 15 0 1 0;
#X connect 16 0 1 0;
#X connect 17 0 15 1;
#X connect 18 0 16 1;
#X connect 18 0 17 0;
#X connect 19 0 18 0;
#X connect 20 0 22 0;
#X connect 21 0 20 0;
#X connect 21 1 20 1;
#X connect 22 0 14 0;
#X restore 36 106 pd filter;
#N canvas 0 23 933 755 envelope 0;
#X obj 330 375 inlet~;
#X obj 330 465 outlet~;
#X obj 511 53 hsl 128 15 0 1 0 0 empty attack attack -2 -8 0 10 -262130
-1 -1 0 1;
#X obj 511 189 hsl 128 15 0 1 0 0 empty release release -2 -8 0 10
-262130 -1 -1 0 1;
#X obj 330 435 *~;
#X obj 412 37 r note;
#X obj 412 88 sel 0 1;
#X obj 412 62 change;
#X obj 412 390 line~;
#X obj 436 155 f;
#X floatatom 508 136 5 0 0 0 - - -;
#X text 560 77 <-check;
#X floatatom 508 267 5 0 0 0 - - -;
#X obj 412 290 f;
#X msg 436 182 1 \$1;
#X msg 412 317 0 \$1;
#X obj 508 77 * 490;
#X obj 508 103 + 10;
#X obj 508 241 + 10;
#X obj 508 215 * 590;
#X connect 0 0 4 0;
#X connect 2 0 16 0;
#X connect 3 0 19 0;
#X connect 4 0 1 0;
#X connect 5 0 7 0;
#X connect 6 0 13 0;
#X connect 6 1 9 0;
#X connect 7 0 6 0;
#X connect 8 0 4 1;
#X connect 9 0 14 0;
#X connect 10 0 9 1;
#X connect 12 0 13 1;
#X connect 13 0 15 0;
#X connect 14 0 8 0;
#X connect 15 0 8 0;
#X connect 16 0 17 0;
#X connect 17 0 10 0;
#X connect 18 0 12 0;
#X connect 19 0 18 0;
#X restore 36 132 pd envelope;
#N canvas 0 23 1280 755 LFO 0;
#X obj 223 21 inlet~;
#X obj 223 585 outlet~;
#X obj 223 556 *~;
#X obj 241 243 osc~;
#X obj 244 74 hsl 128 15 0 1 0 0 empty LFOAmpRate LFOAmpRate -2 -8
0 10 -262130 -1 -1 0 1;
#X obj 262 340 hsl 128 15 0 1 0 0 empty LFOAmpDepth LFOAmpDepth -2
-8 0 10 -262130 -1 -1 0 1;
#X floatatom 241 166 5 0 0 0 - - -;
#X floatatom 259 424 5 0 0 0 - - -;
#X obj 241 498 *~;
#X obj 241 214 line~;
#X obj 259 472 line~;
#X obj 241 268 *~ 0.5;
#X obj 241 298 +~ 0.5;
#X obj 241 525 expr~ 1-$v1;
#X obj 241 103 * 15;
#X obj 241 129 + 0.3;
#X obj 259 365 * 0.9;
#X obj 259 394 + 0;
#X text 454 223 LFOPitchRate and LFOPitchDepth are located in the additive
subpatch;
#X msg 241 189 \$1 50;
#X msg 259 448 \$1 50;
#X connect 0 0 2 0;
#X connect 2 0 1 0;
#X connect 3 0 11 0;
#X connect 4 0 14 0;
#X connect 5 0 16 0;
#X connect 6 0 19 0;
#X connect 7 0 20 0;
#X connect 8 0 13 0;
#X connect 9 0 3 0;
#X connect 10 0 8 1;
#X connect 11 0 12 0;
#X connect 12 0 8 0;
#X connect 13 0 2 1;
#X connect 14 0 15 0;
#X connect 15 0 6 0;
#X connect 16 0 17 0;
#X connect 17 0 7 0;
#X connect 19 0 9 0;
#X connect 20 0 10 0;
#X restore 36 159 pd LFO;
#N canvas 47 23 916 531 reverb 0;
#X obj 409 194 inlet~;
#X obj 411 282 outlet~;
#X obj 492 282 outlet~;
#X obj 495 207 hsl 128 15 0 1 0 0 empty reverbDecay reverbDecay -2
-8 0 10 -262130 -1 -1 0 1;
#X obj 468 172 hsl 128 15 0 1 0 0 empty reverbMix reverbMix -2 -8 0
10 -262130 -1 -1 0 1;
#N canvas 92 396 944 356 schroeder 0;
#X obj 139 52 *~ 0.015;
#X obj 94 14 inlet~;
#X obj 208 14 inlet~;
#X obj 15 268 outlet~;
#X obj 206 269 outlet~;
#X obj 734 11 inlet;
#N canvas 0 23 207 207 room 0;
#X obj 32 35 inlet;
#X obj 32 94 + 0.7;
#X obj 32 160 outlet;
#X text 80 65 scaleroom;
#X text 76 94 offsetroom;
#X obj 47 126 s \$0-room;
#X obj 32 63 * 0.25;
#X connect 0 0 6 0;
#X connect 1 0 2 0;
#X connect 1 0 5 0;
#X connect 6 0 1 0;
#X restore 734 42 pd room;
#N canvas 684 169 244 376 frequency 0;
#X obj 60 222 samplerate~;
#X obj 33 8 inlet;
#X obj 33 194 t f b;
#X obj 33 249 *;
#X obj 53 303 s \$0-frequency;
#X obj 33 327 outlet;
#X obj 33 64 * 0.4;
#X text 76 66 scaledamp;
#X obj 33 38 clip 0 2;
#X obj 33 90 t b f;
#X obj 33 141 -;
#X msg 33 116 1;
#X obj 33 168 abs;
#X obj 33 275 * 0.5;
#X text 153 303 for [lop~];
#X connect 0 0 3 1;
#X connect 1 0 8 0;
#X connect 2 0 3 0;
#X connect 2 1 0 0;
#X connect 3 0 13 0;
#X connect 6 0 9 0;
#X connect 8 0 6 0;
#X connect 9 0 11 0;
#X connect 9 1 10 1;
#X connect 10 0 12 0;
#X connect 11 0 10 0;
#X connect 12 0 2 0;
#X connect 13 0 5 0;
#X connect 13 0 4 0;
#X restore 796 42 pd frequency;
#X floatatom 734 67 5 0 0 0 - - -;
#X floatatom 796 67 10 0 0 0 - - -;
#X obj 796 20 expr 1-$f1;
#X obj 554 34 inlet;
#X msg 554 62 \$1 200;
#X obj 615 60 expr 1-$f1;
#X msg 616 86 \$1 200;
#X obj 616 112 line~;
#X obj 554 88 line~;
#X obj 15 226 *~;
#X obj 94 228 *~;
#X obj 206 228 *~;
#X obj 245 228 *~;
#N canvas 405 27 635 684 dlines 0;
#X msg 378 85 1139 \, 1211 \, 1300 \, 1379 \, 1445 \, 1514 \, 1580
\, 1640;
#N canvas 243 170 195 233 sampstoms 0;
#X obj 27 21 inlet;
#X obj 54 86 samplerate~;
#X obj 27 111 /;
#X obj 27 57 t f b;
#X obj 27 136 * 1000;
#X obj 27 162 outlet;
#X connect 0 0 3 0;
#X connect 1 0 2 1;
#X connect 2 0 4 0;
#X connect 3 0 2 0;
#X connect 3 1 1 0;
#X connect 4 0 5 0;
#X restore 30 107 pd sampstoms;
#X msg 30 82 1116 \, 1188 \, 1277 \, 1356 \, 1422 \, 1491 \, 1557 \,
1617;
#X obj 57 188 +;
#X msg 57 159 1;
#X obj 30 135 t f b;
#X obj 87 188 f;
#X obj 30 56 t b b;
#X msg 87 159 0;
#X obj 57 212 pack f \$0;
#X msg 57 238 \$2-comb\$1left;
#X obj 30 282 s;
#X obj 57 265 symbol;
#N canvas 0 22 195 233 sampstoms 0;
#X obj 27 21 inlet;
#X obj 54 86 samplerate~;
#X obj 27 111 /;
#X obj 27 57 t f b;
#X obj 27 136 * 1000;
#X obj 27 162 outlet;
#X connect 0 0 3 0;
#X connect 1 0 2 1;
#X connect 2 0 4 0;
#X connect 3 0 2 0;
#X connect 3 1 1 0;
#X connect 4 0 5 0;
#X restore 378 111 pd sampstoms;
#X obj 405 192 +;
#X msg 405 163 1;
#X obj 378 139 t f b;
#X obj 435 192 f;
#X msg 435 163 0;
#X obj 405 216 pack f \$0;
#X obj 378 286 s;
#X obj 405 269 symbol;
#X obj 378 60 t b b;
#X msg 405 242 \$2-comb\$1right;
#X obj 30 360 t b b;
#N canvas 0 22 195 233 sampstoms 0;
#X obj 27 21 inlet;
#X obj 54 86 samplerate~;
#X obj 27 111 /;
#X obj 27 57 t f b;
#X obj 27 136 * 1000;
#X obj 27 162 outlet;
#X connect 0 0 3 0;
#X connect 1 0 2 1;
#X connect 2 0 4 0;
#X connect 3 0 2 0;
#X connect 3 1 1 0;
#X connect 4 0 5 0;
#X restore 30 411 pd sampstoms;
#X obj 57 492 +;
#X msg 57 463 1;
#X obj 30 439 t f b;
#X obj 87 492 f;
#X msg 87 463 0;
#X obj 57 516 pack f \$0;
#X obj 30 586 s;
#X obj 57 569 symbol;
#X obj 398 358 t b b;
#N canvas 0 22 195 233 sampstoms 0;
#X obj 27 21 inlet;
#X obj 54 86 samplerate~;
#X obj 27 111 /;
#X obj 27 57 t f b;
#X obj 27 136 * 1000;
#X obj 27 162 outlet;
#X connect 0 0 3 0;
#X connect 1 0 2 1;
#X connect 2 0 4 0;
#X connect 3 0 2 0;
#X connect 3 1 1 0;
#X connect 4 0 5 0;
#X restore 398 409 pd sampstoms;
#X obj 425 490 +;
#X msg 425 461 1;
#X obj 398 437 t f b;
#X obj 455 490 f;
#X msg 455 461 0;
#X obj 425 514 pack f \$0;
#X obj 398 584 s;
#X obj 425 567 symbol;
#X obj 30 22 loadbang;
#X obj 378 31 loadbang;
#X obj 30 334 loadbang;
#X obj 398 333 loadbang;
#X msg 30 386 225 \, 556 \, 441 \, 341;
#X msg 398 382 248 \, 579 \, 464 \, 364;
#X msg 57 542 \$2-allpass\$1left;
#X msg 425 541 \$2-allpass\$1right;
#X connect 0 0 13 0;
#X connect 1 0 5 0;
#X connect 2 0 1 0;
#X connect 3 0 6 0;
#X connect 3 0 9 0;
#X connect 4 0 3 0;
#X connect 5 0 11 0;
#X connect 5 1 4 0;
#X connect 6 0 3 1;
#X connect 7 0 2 0;
#X connect 7 1 8 0;
#X connect 8 0 6 0;
#X connect 9 0 10 0;
#X connect 10 0 12 0;
#X connect 12 0 11 1;
#X connect 13 0 16 0;
#X connect 14 0 17 0;
#X connect 14 0 19 0;
#X connect 15 0 14 0;
#X connect 16 0 20 0;
#X connect 16 1 15 0;
#X connect 17 0 14 1;
#X connect 18 0 17 0;
#X connect 19 0 23 0;
#X connect 21 0 20 1;
#X connect 22 0 0 0;
#X connect 22 1 18 0;
#X connect 23 0 21 0;
#X connect 24 0 48 0;
#X connect 24 1 30 0;
#X connect 25 0 28 0;
#X connect 26 0 29 0;
#X connect 26 0 31 0;
#X connect 27 0 26 0;
#X connect 28 0 32 0;
#X connect 28 1 27 0;
#X connect 29 0 26 1;
#X connect 30 0 29 0;
#X connect 31 0 50 0;
#X connect 33 0 32 1;
#X connect 34 0 49 0;
#X connect 34 1 40 0;
#X connect 35 0 38 0;
#X connect 36 0 39 0;
#X connect 36 0 41 0;
#X connect 37 0 36 0;
#X connect 38 0 42 0;
#X connect 38 1 37 0;
#X connect 39 0 36 1;
#X connect 40 0 39 0;
#X connect 41 0 51 0;
#X connect 43 0 42 1;
#X connect 44 0 7 0;
#X connect 45 0 22 0;
#X connect 46 0 24 0;
#X connect 47 0 34 0;
#X connect 48 0 25 0;
#X connect 49 0 35 0;
#X connect 50 0 33 0;
#X connect 51 0 43 0;
#X restore 337 272 pd dlines;
#N canvas 27 56 358 650 diff-left 0;
#X obj 51 107 *~ 0.5;
#X obj 36 132 +~;
#X obj 66 132 -~;
#X obj 36 26 inlet~;
#X obj 81 238 *~ 0.5;
#X obj 66 263 +~;
#X obj 96 263 -~;
#X obj 111 368 *~ 0.5;
#X obj 96 393 +~;
#X obj 126 393 -~;
#X obj 141 498 *~ 0.5;
#X obj 126 523 +~;
#X obj 156 523 -~;
#X obj 156 605 outlet~;
#X text 95 28 freeverb's diffusor;
#X obj 156 576 hip~ 5;
#X floatatom 214 70 5 0 0 0 - - -;
#X floatatom 246 203 5 0 0 0 - - -;
#X floatatom 280 334 5 0 0 0 - - -;
#X floatatom 304 464 5 0 0 0 - - -;
#X obj 51 53 r \$0-allpass1left;
#X obj 51 80 delread~ \$0-allpass1left;
#X obj 36 158 delwrite~ \$0-allpass1left 40;
#X obj 81 186 r \$0-allpass2left;
#X obj 81 211 delread~ \$0-allpass2left;
#X obj 66 290 delwrite~ \$0-allpass2left 40;
#X obj 111 317 r \$0-allpass3left;
#X obj 111 341 delread~ \$0-allpass3left;
#X obj 96 420 delwrite~ \$0-allpass3left 40;
#X obj 141 447 r \$0-allpass4left;
#X obj 141 471 delread~ \$0-allpass4left;
#X obj 126 550 delwrite~ \$0-allpass4left 40;
#X connect 0 0 1 1;
#X connect 1 0 22 0;
#X connect 2 0 5 0;
#X connect 2 0 6 1;
#X connect 3 0 1 0;
#X connect 3 0 2 1;
#X connect 4 0 5 1;
#X connect 5 0 25 0;
#X connect 6 0 8 0;
#X connect 6 0 9 1;
#X connect 7 0 8 1;
#X connect 8 0 28 0;
#X connect 9 0 11 0;
#X connect 9 0 12 1;
#X connect 10 0 11 1;
#X connect 11 0 31 0;
#X connect 12 0 15 0;
#X connect 15 0 13 0;
#X connect 20 0 16 0;
#X connect 20 0 21 0;
#X connect 21 0 0 0;
#X connect 21 0 2 0;
#X connect 23 0 17 0;
#X connect 23 0 24 0;
#X connect 24 0 4 0;
#X connect 24 0 6 0;
#X connect 26 0 18 0;
#X connect 26 0 27 0;
#X connect 27 0 7 0;
#X connect 27 0 9 0;
#X connect 29 0 19 0;
#X connect 29 0 30 0;
#X connect 30 0 10 0;
#X connect 30 0 12 0;
#X restore 15 168 pd diff-left;
#N canvas 312 366 778 367 comb-left2 0;
#X obj 46 244 +~;
#X obj 61 219 *~ 0.3;
#X obj 61 194 lop~ 1000;
#X obj 231 244 +~;
#X obj 246 219 *~ 0.3;
#X obj 246 194 lop~ 1000;
#X obj 429 218 *~ 0.3;
#X obj 429 193 lop~ 1000;
#X obj 414 241 +~;
#X obj 610 218 *~ 0.3;
#X obj 610 193 lop~ 1000;
#X obj 595 241 +~;
#X obj 112 170 r \$0-frequency;
#X obj 297 170 r \$0-frequency;
#X obj 480 167 r \$0-frequency;
#X obj 661 167 r \$0-frequency;
#X obj 46 28 inlet~;
#X obj 338 326 outlet~;
#X obj 61 90 r \$0-comb5left;
#X obj 61 141 delread~ \$0-comb5left;
#X obj 46 268 delwrite~ \$0-comb5left 100;
#X obj 246 90 r \$0-comb6left;
#X obj 246 142 delread~ \$0-comb6left;
#X obj 231 268 delwrite~ \$0-comb6left 100;
#X obj 429 88 r \$0-comb7left;
#X obj 429 141 delread~ \$0-comb7left;
#X obj 414 267 delwrite~ \$0-comb7left 100;
#X obj 610 89 r \$0-comb8left;
#X obj 610 141 delread~ \$0-comb8left;
#X obj 595 267 delwrite~ \$0-comb8left 100;
#X floatatom 70 116 5 0 0 0 - - -;
#X floatatom 261 118 5 0 0 0 - - -;
#X floatatom 440 117 5 0 0 0 - - -;
#X floatatom 620 116 5 0 0 0 - - -;
#X obj 279 58 clip 0 0.99;
#X obj 279 28 r \$0-room;
#X connect 0 0 20 0;
#X connect 1 0 0 1;
#X connect 2 0 1 0;
#X connect 3 0 23 0;
#X connect 4 0 3 1;
#X connect 5 0 4 0;
#X connect 6 0 8 1;
#X connect 7 0 6 0;
#X connect 8 0 26 0;
#X connect 9 0 11 1;
#X connect 10 0 9 0;
#X connect 11 0 29 0;
#X connect 12 0 2 1;
#X connect 13 0 5 1;
#X connect 14 0 7 1;
#X connect 15 0 10 1;
#X connect 16 0 0 0;
#X connect 16 0 3 0;
#X connect 16 0 8 0;
#X connect 16 0 11 0;
#X connect 18 0 19 0;
#X connect 18 0 30 0;
#X connect 19 0 2 0;
#X connect 19 0 17 0;
#X connect 21 0 22 0;
#X connect 21 0 31 0;
#X connect 22 0 5 0;
#X connect 22 0 17 0;
#X connect 24 0 25 0;
#X connect 24 0 32 0;
#X connect 25 0 7 0;
#X connect 25 0 17 0;
#X connect 27 0 28 0;
#X connect 27 0 33 0;
#X connect 28 0 10 0;
#X connect 28 0 17 0;
#X connect 34 0 1 1;
#X connect 34 0 4 1;
#X connect 34 0 6 1;
#X connect 34 0 9 1;
#X connect 35 0 34 0;
#X restore 36 134 pd comb-left2;
#N canvas 261 41 778 367 comb-left1 0;
#X obj 46 244 +~;
#X obj 61 219 *~ 0.3;
#X obj 61 194 lop~ 1000;
#X obj 231 244 +~;
#X obj 246 219 *~ 0.3;
#X obj 246 194 lop~ 1000;
#X obj 429 218 *~ 0.3;
#X obj 429 193 lop~ 1000;
#X obj 414 241 +~;
#X obj 610 218 *~ 0.3;
#X obj 610 193 lop~ 1000;
#X obj 595 241 +~;
#X obj 61 141 delread~ \$0-comb1left;
#X obj 246 142 delread~ \$0-comb2left;
#X obj 429 141 delread~ \$0-comb3left;
#X obj 610 141 delread~ \$0-comb4left;
#X obj 46 268 delwrite~ \$0-comb1left 100;
#X obj 231 268 delwrite~ \$0-comb2left 100;
#X obj 414 267 delwrite~ \$0-comb3left 100;
#X obj 595 267 delwrite~ \$0-comb4left 100;
#X obj 61 97 r \$0-comb1left;
#X obj 246 97 r \$0-comb2left;
#X obj 429 95 r \$0-comb3left;
#X obj 610 96 r \$0-comb4left;
#X obj 112 170 r \$0-frequency;
#X obj 297 170 r \$0-frequency;
#X obj 480 167 r \$0-frequency;
#X obj 661 167 r \$0-frequency;
#X obj 46 28 inlet~;
#X obj 338 326 outlet~;
#X floatatom 70 119 5 0 0 0 - - -;
#X floatatom 255 121 5 0 0 0 - - -;
#X floatatom 439 119 5 0 0 0 - - -;
#X floatatom 622 121 5 0 0 0 - - -;
#X obj 279 58 clip 0 0.99;
#X obj 279 29 r \$0-room;
#X connect 0 0 16 0;
#X connect 1 0 0 1;
#X connect 2 0 1 0;
#X connect 3 0 17 0;
#X connect 4 0 3 1;
#X connect 5 0 4 0;
#X connect 6 0 8 1;
#X connect 7 0 6 0;
#X connect 8 0 18 0;
#X connect 9 0 11 1;
#X connect 10 0 9 0;
#X connect 11 0 19 0;
#X connect 12 0 2 0;
#X connect 12 0 29 0;
#X connect 13 0 5 0;
#X connect 13 0 29 0;
#X connect 14 0 7 0;
#X connect 14 0 29 0;
#X connect 15 0 10 0;
#X connect 15 0 29 0;
#X connect 20 0 12 0;
#X connect 20 0 30 0;
#X connect 21 0 13 0;
#X connect 21 0 31 0;
#X connect 22 0 14 0;
#X connect 22 0 32 0;
#X connect 23 0 15 0;
#X connect 23 0 33 0;
#X connect 24 0 2 1;
#X connect 25 0 5 1;
#X connect 26 0 7 1;
#X connect 27 0 10 1;
#X connect 28 0 0 0;
#X connect 28 0 3 0;
#X connect 28 0 8 0;
#X connect 28 0 11 0;
#X connect 34 0 1 1;
#X connect 34 0 4 1;
#X connect 34 0 6 1;
#X connect 34 0 9 1;
#X connect 35 0 34 0;
#X restore 15 100 pd comb-left1;
#N canvas 261 41 778 367 comb-right1 0;
#X obj 46 244 +~;
#X obj 61 219 *~ 0.3;
#X obj 61 194 lop~ 1000;
#X obj 231 244 +~;
#X obj 246 219 *~ 0.3;
#X obj 246 194 lop~ 1000;
#X obj 429 218 *~ 0.3;
#X obj 429 193 lop~ 1000;
#X obj 414 241 +~;
#X obj 610 218 *~ 0.3;
#X obj 610 193 lop~ 1000;
#X obj 595 241 +~;
#X obj 112 170 r \$0-frequency;
#X obj 297 170 r \$0-frequency;
#X obj 480 167 r \$0-frequency;
#X obj 661 167 r \$0-frequency;
#X obj 46 28 inlet~;
#X obj 338 326 outlet~;
#X floatatom 70 119 5 0 0 0 - - -;
#X floatatom 255 121 5 0 0 0 - - -;
#X floatatom 439 119 5 0 0 0 - - -;
#X floatatom 622 121 5 0 0 0 - - -;
#X obj 61 141 delread~ \$0-comb1right;
#X obj 246 142 delread~ \$0-comb2right;
#X obj 429 141 delread~ \$0-comb3right;
#X obj 610 141 delread~ \$0-comb4right;
#X obj 61 97 r \$0-comb1right;
#X obj 246 97 r \$0-comb2right;
#X obj 429 95 r \$0-comb3right;
#X obj 610 97 r \$0-comb4right;
#X obj 46 268 delwrite~ \$0-comb1right 100;
#X obj 231 268 delwrite~ \$0-comb2right 100;
#X obj 414 267 delwrite~ \$0-comb3right 100;
#X obj 595 267 delwrite~ \$0-comb4right 100;
#X obj 279 58 clip 0 0.99;
#X obj 279 28 r \$0-room;
#X connect 0 0 30 0;
#X connect 1 0 0 1;
#X connect 2 0 1 0;
#X connect 3 0 31 0;
#X connect 4 0 3 1;
#X connect 5 0 4 0;
#X connect 6 0 8 1;
#X connect 7 0 6 0;
#X connect 8 0 32 0;
#X connect 9 0 11 1;
#X connect 10 0 9 0;
#X connect 11 0 33 0;
#X connect 12 0 2 1;
#X connect 13 0 5 1;
#X connect 14 0 7 1;
#X connect 15 0 10 1;
#X connect 16 0 0 0;
#X connect 16 0 3 0;
#X connect 16 0 8 0;
#X connect 16 0 11 0;
#X connect 22 0 2 0;
#X connect 22 0 17 0;
#X connect 23 0 5 0;
#X connect 23 0 17 0;
#X connect 24 0 7 0;
#X connect 24 0 17 0;
#X connect 25 0 10 0;
#X connect 25 0 17 0;
#X connect 26 0 18 0;
#X connect 26 0 22 0;
#X connect 27 0 19 0;
#X connect 27 0 23 0;
#X connect 28 0 20 0;
#X connect 28 0 24 0;
#X connect 29 0 21 0;
#X connect 29 0 25 0;
#X connect 34 0 1 1;
#X connect 34 0 4 1;
#X connect 34 0 6 1;
#X connect 34 0 9 1;
#X connect 35 0 34 0;
#X restore 245 99 pd comb-right1;
#N canvas 312 366 778 367 comb-right2 0;
#X obj 46 244 +~;
#X obj 61 219 *~ 0.3;
#X obj 61 194 lop~ 1000;
#X obj 231 244 +~;
#X obj 246 219 *~ 0.3;
#X obj 246 194 lop~ 1000;
#X obj 429 218 *~ 0.3;
#X obj 429 193 lop~ 1000;
#X obj 414 241 +~;
#X obj 610 218 *~ 0.3;
#X obj 610 193 lop~ 1000;
#X obj 595 241 +~;
#X obj 112 170 r \$0-frequency;
#X obj 297 170 r \$0-frequency;
#X obj 480 167 r \$0-frequency;
#X obj 661 167 r \$0-frequency;
#X obj 46 28 inlet~;
#X obj 338 326 outlet~;
#X floatatom 70 116 5 0 0 0 - - -;
#X floatatom 261 118 5 0 0 0 - - -;
#X floatatom 440 117 5 0 0 0 - - -;
#X floatatom 620 116 5 0 0 0 - - -;
#X obj 279 58 clip 0 0.99;
#X obj 61 90 r \$0-comb5right;
#X obj 246 90 r \$0-comb6right;
#X obj 429 88 r \$0-comb7right;
#X obj 610 89 r \$0-comb8right;
#X obj 61 141 delread~ \$0-comb5right;
#X obj 246 142 delread~ \$0-comb6right;
#X obj 429 141 delread~ \$0-comb7right;
#X obj 610 141 delread~ \$0-comb8right;
#X obj 46 268 delwrite~ \$0-comb5right 100;
#X obj 231 268 delwrite~ \$0-comb6right 100;
#X obj 414 267 delwrite~ \$0-comb7right 100;
#X obj 595 267 delwrite~ \$0-comb8right 100;
#X obj 279 28 r \$0-room;
#X connect 0 0 31 0;
#X connect 1 0 0 1;
#X connect 2 0 1 0;
#X connect 3 0 32 0;
#X connect 4 0 3 1;
#X connect 5 0 4 0;
#X connect 6 0 8 1;
#X connect 7 0 6 0;
#X connect 8 0 33 0;
#X connect 9 0 11 1;
#X connect 10 0 9 0;
#X connect 11 0 34 0;
#X connect 12 0 2 1;
#X connect 13 0 5 1;
#X connect 14 0 7 1;
#X connect 15 0 10 1;
#X connect 16 0 0 0;
#X connect 16 0 3 0;
#X connect 16 0 8 0;
#X connect 16 0 11 0;
#X connect 22 0 1 1;
#X connect 22 0 4 1;
#X connect 22 0 6 1;
#X connect 22 0 9 1;
#X connect 23 0 18 0;
#X connect 23 0 27 0;
#X connect 24 0 19 0;
#X connect 24 0 28 0;
#X connect 25 0 20 0;
#X connect 25 0 29 0;
#X connect 26 0 21 0;
#X connect 26 0 30 0;
#X connect 27 0 2 0;
#X connect 27 0 17 0;
#X connect 28 0 5 0;
#X connect 28 0 17 0;
#X connect 29 0 7 0;
#X connect 29 0 17 0;
#X connect 30 0 10 0;
#X connect 30 0 17 0;
#X connect 35 0 22 0;
#X restore 262 133 pd comb-right2;
#N canvas 27 56 358 650 diff-right 0;
#X obj 51 107 *~ 0.5;
#X obj 36 132 +~;
#X obj 66 132 -~;
#X obj 36 26 inlet~;
#X obj 81 238 *~ 0.5;
#X obj 66 263 +~;
#X obj 96 263 -~;
#X obj 111 368 *~ 0.5;
#X obj 96 393 +~;
#X obj 126 393 -~;
#X obj 141 498 *~ 0.5;
#X obj 126 523 +~;
#X obj 156 523 -~;
#X obj 156 605 outlet~;
#X text 95 28 freeverb's diffusor;
#X obj 156 576 hip~ 5;
#X floatatom 214 70 5 0 0 0 - - -;
#X floatatom 244 203 5 0 0 0 - - -;
#X floatatom 280 334 5 0 0 0 - - -;
#X floatatom 304 464 5 0 0 0 - - -;
#X obj 51 53 r \$0-allpass1right;
#X obj 51 80 delread~ \$0-allpass1right;
#X obj 36 158 delwrite~ \$0-allpass1right 40;
#X obj 81 186 r \$0-allpass2right;
#X obj 81 211 delread~ \$0-allpass2right;
#X obj 66 290 delwrite~ \$0-allpass2right 40;
#X obj 111 317 r \$0-allpass3right;
#X obj 111 341 delread~ \$0-allpass3right;
#X obj 96 420 delwrite~ \$0-allpass3right 40;
#X obj 141 447 r \$0-allpass4right;
#X obj 141 471 delread~ \$0-allpass4right;
#X obj 126 550 delwrite~ \$0-allpass4right 40;
#X connect 0 0 1 1;
#X connect 1 0 22 0;
#X connect 2 0 5 0;
#X connect 2 0 6 1;
#X connect 3 0 1 0;
#X connect 3 0 2 1;
#X connect 4 0 5 1;
#X connect 5 0 25 0;
#X connect 6 0 8 0;
#X connect 6 0 9 1;
#X connect 7 0 8 1;
#X connect 8 0 28 0;
#X connect 9 0 11 0;
#X connect 9 0 12 1;
#X connect 10 0 11 1;
#X connect 11 0 31 0;
#X connect 12 0 15 0;
#X connect 15 0 13 0;
#X connect 20 0 16 0;
#X connect 20 0 21 0;
#X connect 21 0 0 0;
#X connect 21 0 2 0;
#X connect 23 0 17 0;
#X connect 23 0 24 0;
#X connect 24 0 4 0;
#X connect 24 0 6 0;
#X connect 26 0 18 0;
#X connect 26 0 27 0;
#X connect 27 0 7 0;
#X connect 27 0 9 0;
#X connect 29 0 19 0;
#X connect 29 0 30 0;
#X connect 30 0 10 0;
#X connect 30 0 12 0;
#X restore 245 169 pd diff-right;
#X connect 0 0 25 0;
#X connect 0 0 24 0;
#X connect 0 0 26 0;
#X connect 0 0 23 0;
#X connect 1 0 0 0;
#X connect 1 0 18 0;
#X connect 2 0 0 0;
#X connect 2 0 19 0;
#X connect 5 0 6 0;
#X connect 5 0 10 0;
#X connect 6 0 8 0;
#X connect 7 0 9 0;
#X connect 10 0 7 0;
#X connect 11 0 12 0;
#X connect 11 0 13 0;
#X connect 12 0 16 0;
#X connect 13 0 14 0;
#X connect 14 0 15 0;
#X connect 15 0 19 1;
#X connect 15 0 18 1;
#X connect 16 0 17 1;
#X connect 16 0 20 1;
#X connect 17 0 3 0;
#X connect 18 0 3 0;
#X connect 19 0 4 0;
#X connect 20 0 4 0;
#X connect 22 0 17 0;
#X connect 23 0 22 0;
#X connect 24 0 22 0;
#X connect 25 0 27 0;
#X connect 26 0 27 0;
#X connect 27 0 20 0;
#X restore 411 246 pd schroeder;
#X connect 0 0 5 0;
#X connect 0 0 5 1;
#X connect 3 0 5 3;
#X connect 4 0 5 2;
#X connect 5 0 1 0;
#X connect 5 1 2 0;
#X restore 36 261 pd reverb;
#X obj 36 350 dac~;
#X obj 375 321 tgl 15 0 empty empty empty 17 7 0 10 -262144 -1 -1 0
1;
#X obj 375 343 s note;
#X obj 464 79 r on;
#X msg 464 104 \; pd dsp \$1;
#X obj 375 231 r pynote;
#X obj 366 79 loadbang;
#X msg 366 105 \; pd dsp 1;
#X text 259 563 <-- some default settings (not enabled);
#X msg 390 287 0;
#X obj 390 261 r noteKill;
#X msg 124 476 \; pd dsp 1 \; H01 1 \; H02 0.9 \; H03 0.8 \; H04 0.7
\; H05 0.6 \; H06 0.5 \; H07 0.4 \; H08 0.3 \; LFOAmpDepth 1 \; LFOAmpRate
1 \; freq 0 \; attack 0 \; release 0 \; reverbMix 0 \; reverbDecay
0 \; LFOPitchRate 0 \; LFOPitchDepth 0 \; filterMix 0;
#X obj 37 226 *~;
#X obj 69 198 r amp;
#X connect 0 0 2 0;
#X connect 2 0 3 0;
#X connect 3 0 4 0;
#X connect 4 0 18 0;
#X connect 5 0 6 0;
#X connect 5 1 6 1;
#X connect 7 0 8 0;
#X connect 9 0 10 0;
#X connect 11 0 7 0;
#X connect 12 0 13 0;
#X connect 15 0 7 0;
#X connect 16 0 15 0;
#X connect 18 0 5 0;
#X connect 19 0 18 1;
