#N canvas 64 23 1216 755 10;
#N canvas 0 50 450 300 (subpatch) 0;
#X array spectrum 128 float 0;
#X coords 0 4300 127 -40 400 130 1 0 0;
#X restore 576 91 graph;
#X text 537 150 power;
#X text 30 17 2 Wavetable;
#X text 727 223 frequency;
#X obj 627 480 mtof;
#X floatatom 627 453 5 0 0 0 - - -, f 5;
#X floatatom 627 510 5 0 0 0 - - -, f 5;
#N canvas 0 22 450 300 (subpatch) 0;
#X array Wavetable 35 float 1;
#A 0 0.89231 0.89231 0.815387 0.753848 0.676924 0.63077 0.584616 0.476924
0.338462 0.276923 0.138461 0.0769222 0.0307682 -0.153848 -0.230771
0.138462 -0.39231 -0.446157 -0.569234 -0.630773 -0.692312 -0.78462
-0.846158 -0.892312 -0.923082 -0.938466 -0.923082 -0.861543 -0.75385
-0.600003 -0.461541 -0.29231 -0.0153859 0.16923 0.353846;
#X coords 0 1 34 -1 258 130 1 0 0;
#X restore 179 91 graph;
#X text 25 155 draw with mouse --->;
#X obj 627 537 tabosc4~ Wavetable;
#X obj 627 622 dac~;
#X obj 783 335 key;
#X obj 479 286 loadbang;
#X msg 479 319 \; pd dsp 1;
#X msg 816 461 1 10;
#X obj 627 394 loadbang;
#X obj 783 537 line~;
#X obj 784 482 pipe 20;
#X obj 627 567 *~;
#X msg 784 504 0 1000;
#X msg 900 461 1 10;
#X obj 877 482 pipe 20;
#X obj 877 436 t b b b;
#X msg 877 505 0 2000;
#X obj 611 365 r melody;
#X obj 51 239 vradio 15 1 0 4 empty empty empty 0 -8 0 10 -262130 -1
-1 3;
#X text 74 239 sine;
#X text 73 256 cosine;
#X text 73 286 square;
#X text 72 272 sawtooth;
#X obj 51 321 sel 0 1 2 3;
#N canvas 42 101 558 569 spectrogram 0;
#X obj 99 159 inlet~;
#X obj 99 189 rfft~;
#X obj 99 222 *~;
#X obj 130 222 *~;
#X obj 99 252 sqrt~;
#X obj 98 99 block~ 4096 1;
#X obj 99 278 biquad~ 0 0 0 0 1;
#X obj 99 390 tabwrite~ spectrum;
#X obj 133 350 metro 200;
#X obj 133 301 loadbang;
#X msg 133 326 1;
#X connect 0 0 1 0;
#X connect 1 0 2 0;
#X connect 1 0 2 1;
#X connect 1 1 3 0;
#X connect 1 1 3 1;
#X connect 2 0 4 0;
#X connect 3 0 4 0;
#X connect 4 0 6 0;
#X connect 6 0 7 0;
#X connect 8 0 7 0;
#X connect 9 0 10 0;
#X connect 10 0 8 0;
#X restore 668 622 pd spectrogram;
#X text 179 264 <--- here are some presets;
#X text 28 48 [spacebar] to play note \, [m] to play melody \, [s]
for sweep;
#X obj 783 360 sel 32 109 115;
#X msg 977 461 1 10;
#X obj 957 482 pipe 20;
#X msg 957 505 0 2000;
#X obj 957 436 t b b b b;
#X obj 1017 482 pipe 20;
#X obj 1016 538 line;
#X msg 1037 461 48 10;
#X obj 784 438 t b b b;
#X msg 627 422 60;
#X obj 668 597 *~ 2;
#X msg 1017 505 60 1000;
#X obj 964 277 r mel;
#X obj 1024 278 r sweep;
#X obj 891 278 r note;
#X text 880 251 ______________________use these for wrapper;
#X msg 103 356 \; Wavetable sinesum 32 0.9;
#X msg 103 396 \; Wavetable cosinesum 32 0 0.9;
#X msg 104 441 \; Wavetable sinesum 32 1 0.5 0.33 0.25 0.2 0.1667 0.1428
0.125 0.1111 0.1 0.0909 \; Wavetable normalize 0.7;
#X msg 104 505 \; Wavetable sinesum 32 1 0 0.33 0 0.25 0 0.2 0 0.167
0 0.14 0 0.125 0 0.1 0 0.09 0 0.0833 0 \; Wavetable normalize 0.5;
#X obj 938 616 metro 250;
#X msg 938 577 1;
#X obj 981 643 + 1;
#X obj 938 643 f;
#X obj 938 543 t b b;
#X msg 1020 615 1;
#X obj 938 672 sel 1 2 3 4;
#X msg 939 702 48;
#X msg 979 702 52;
#X obj 940 732 s melody;
#X msg 1059 702 60;
#X msg 1019 702 57;
#X connect 4 0 6 0;
#X connect 5 0 4 0;
#X connect 6 0 9 0;
#X connect 9 0 18 0;
#X connect 11 0 34 0;
#X connect 12 0 13 0;
#X connect 14 0 16 0;
#X connect 15 0 43 0;
#X connect 16 0 18 1;
#X connect 17 0 19 0;
#X connect 18 0 10 0;
#X connect 18 0 10 1;
#X connect 18 0 44 0;
#X connect 19 0 16 0;
#X connect 20 0 16 0;
#X connect 21 0 23 0;
#X connect 22 0 21 0;
#X connect 22 1 20 0;
#X connect 22 2 58 0;
#X connect 23 0 16 0;
#X connect 24 0 5 0;
#X connect 25 0 30 0;
#X connect 30 0 50 0;
#X connect 30 1 51 0;
#X connect 30 2 52 0;
#X connect 30 3 53 0;
#X connect 34 0 42 0;
#X connect 34 1 22 0;
#X connect 34 2 38 0;
#X connect 35 0 16 0;
#X connect 36 0 37 0;
#X connect 37 0 16 0;
#X connect 38 0 36 0;
#X connect 38 1 35 0;
#X connect 38 2 39 0;
#X connect 38 3 41 0;
#X connect 39 0 45 0;
#X connect 40 0 5 0;
#X connect 41 0 40 0;
#X connect 42 0 17 0;
#X connect 42 1 14 0;
#X connect 42 2 43 0;
#X connect 43 0 5 0;
#X connect 44 0 31 0;
#X connect 45 0 40 0;
#X connect 46 0 22 0;
#X connect 47 0 38 0;
#X connect 48 0 42 0;
#X connect 54 0 57 0;
#X connect 55 0 54 0;
#X connect 56 0 57 1;
#X connect 57 0 56 0;
#X connect 57 0 60 0;
#X connect 58 0 55 0;
#X connect 58 1 59 0;
#X connect 59 0 57 1;
#X connect 60 0 61 0;
#X connect 60 1 62 0;
#X connect 60 2 65 0;
#X connect 60 3 64 0;
#X connect 61 0 63 0;
#X connect 62 0 63 0;
#X connect 64 0 63 0;
#X connect 65 0 63 0;
