#N canvas 179 126 947 578 10;
#X obj 75 359 phasor~;
#X obj 62 305 loadbang;
#X obj 16 386 -~;
#X msg 62 332 0;
#X msg 121 332 0.5;
#X obj 60 153 + 1;
#X obj 17 153 f;
#X obj 17 262 mtof;
#X obj 14 541 dac~;
#X obj 17 491 *~;
#X text 19 13 6 Low Frequency Oscillator;
#X obj 253 154 osc~;
#X obj 322 45 hsl 128 15 0.33 15 0 0 empty speed LFO_speed_(Hz) -2
-8 0 10 -262130 -1 -1 12700 1;
#X obj 322 186 hsl 128 15 0 90 0 0 empty depth LFO_depth_(%) -2 -8
0 10 -262130 -1 -1 12700 1;
#X floatatom 319 67 5 0 0 0 - - -;
#X floatatom 319 211 5 0 0 0 - - -;
#X obj 253 318 *~;
#X msg 253 100 \$1 100;
#X obj 253 125 line~;
#X msg 271 268 \$1 100;
#X obj 271 292 line~;
#X obj 253 179 *~ 0.5;
#X obj 253 209 +~ 0.5;
#X obj 253 345 expr~ 1-$v1;
#X obj 17 185 % 16;
#X obj 271 246 * 0.01;
#X obj 17 46 loadbang;
#X msg 17 70 1;
#X obj 154 47 key;
#X obj 154 73 sel 32;
#X obj 154 102 tgl 15 0 empty empty empty 17 7 0 10 -262144 -1 -1 0
1;
#X msg 154 128 \; pd dsp \$1;
#X obj 103 120 sel 0;
#X msg 103 145 0;
#X obj 154 197 loadbang;
#X obj 17 122 metro 200;
#X obj 17 212 * 2;
#X obj 17 237 + 42;
#X obj 554 106 vsl 15 300 0 1 0 0 empty LFO empty 0 -9 0 10 -4032 -1
-1 16951 1;
#X obj 253 431 snapshot~;
#X obj 16 359 phasor~;
#X obj 286 378 loadbang;
#X obj 253 460 s LFO;
#X text 578 97 100%;
#X text 515 75 LFO amplitude;
#X text 578 397 0%;
#X text 579 237 50%;
#X obj 286 403 metro 50;
#X msg 154 225 \; speed 3 \; depth 50;
#X obj 324 10 r pyin_lfo_speed;
#X obj 326 150 r pyin_lfo_depth;
#X connect 0 0 2 1;
#X connect 1 0 4 0;
#X connect 1 0 3 0;
#X connect 2 0 9 0;
#X connect 3 0 40 1;
#X connect 4 0 0 1;
#X connect 5 0 6 1;
#X connect 6 0 5 0;
#X connect 6 0 24 0;
#X connect 7 0 40 0;
#X connect 7 0 0 0;
#X connect 9 0 8 0;
#X connect 9 0 8 1;
#X connect 11 0 21 0;
#X connect 12 0 14 0;
#X connect 13 0 15 0;
#X connect 14 0 17 0;
#X connect 15 0 25 0;
#X connect 16 0 23 0;
#X connect 17 0 18 0;
#X connect 18 0 11 0;
#X connect 19 0 20 0;
#X connect 20 0 16 1;
#X connect 21 0 22 0;
#X connect 22 0 16 0;
#X connect 23 0 9 1;
#X connect 23 0 39 0;
#X connect 24 0 36 0;
#X connect 25 0 19 0;
#X connect 26 0 27 0;
#X connect 27 0 30 0;
#X connect 27 0 35 0;
#X connect 28 0 29 0;
#X connect 29 0 30 0;
#X connect 30 0 31 0;
#X connect 30 0 32 0;
#X connect 32 0 33 0;
#X connect 33 0 6 1;
#X connect 34 0 48 0;
#X connect 35 0 6 0;
#X connect 36 0 37 0;
#X connect 37 0 7 0;
#X connect 39 0 42 0;
#X connect 40 0 2 0;
#X connect 41 0 47 0;
#X connect 47 0 39 0;
#X connect 49 0 12 0;
#X connect 50 0 13 0;
