#N canvas 1591 207 881 755 10;
#X text 16 13 5 Envelope;
#X obj 18 425 phasor~;
#X obj 77 425 phasor~;
#X obj 64 371 loadbang;
#X obj 18 452 -~;
#X msg 64 398 0;
#X msg 123 398 0.5;
#X obj 60 153 + 1;
#X obj 17 153 f;
#X obj 19 372 mtof;
#X obj 18 44 loadbang;
#X msg 18 68 1;
#X obj 17 185 % 4;
#X obj 17 272 sel 0 1 2 3;
#X msg 99 90 0;
#X obj 18 530 dac~;
#X msg 18 322 63;
#X msg 58 322 59;
#X msg 98 322 55;
#X msg 146 323 51;
#X obj 18 491 *~;
#N canvas 58 25 998 714 adsr 0;
#X obj 211 62 inlet;
#X text 207 37 trigger;
#X obj 211 140 sel 0;
#X obj 300 203 t b;
#X obj 209 338 del \$2;
#X obj 208 459 line~;
#X obj 209 367 f \$4;
#X obj 209 423 pack 0 \$3;
#X msg 211 171 stop;
#X obj 266 392 pack 0 \$5;
#X obj 208 484 outlet~;
#X obj 209 392 * 0.01;
#X obj 251 173 moses;
#X obj 251 201 t b b;
#X msg 283 274 0;
#X obj 300 247 pack 1 \$2;
#X text 293 38 A;
#X text 391 34 D;
#X text 470 37 S;
#X text 550 35 R;
#X obj 297 60 r A;
#X obj 390 57 r D;
#X obj 553 56 r Re;
#X obj 477 59 r Su;
#X connect 0 0 2 0;
#X connect 2 0 8 0;
#X connect 2 0 9 0;
#X connect 2 1 12 0;
#X connect 3 0 4 0;
#X connect 3 0 15 0;
#X connect 4 0 6 0;
#X connect 5 0 10 0;
#X connect 6 0 11 0;
#X connect 7 0 5 0;
#X connect 8 0 4 0;
#X connect 9 0 5 0;
#X connect 11 0 7 0;
#X connect 12 0 13 0;
#X connect 12 1 3 0;
#X connect 13 0 3 0;
#X connect 13 1 14 0;
#X connect 14 0 5 0;
#X connect 15 0 5 0;
#X connect 20 0 4 1;
#X connect 20 0 15 1;
#X connect 21 0 7 1;
#X connect 22 0 9 1;
#X connect 23 0 6 1;
#X restore 235 348 pd adsr;
#X obj 422 80 hsl 128 15 10 300 0 0 A attack attack_(ms) -2 -8 0 10
-262130 -1 -1 3941 1;
#X obj 421 144 hsl 128 15 10 300 0 0 D decay decay_(ms) -2 -8 0 10
-262130 -1 -1 3941 1;
#X obj 419 279 hsl 128 15 10 500 0 0 Re release release_(ms) -2 -8
0 10 -262130 -1 -1 2333 1;
#X obj 420 214 hsl 128 15 0 100 0 0 Su sustain sustain_level_(%) -2
-8 0 10 -262130 -1 -1 6350 1;
#X msg 134 81 \; attack 100 \; decay 100 \; sustain 50 \; release 100
;
#X obj 18 93 metro 1500;
#X obj 17 220 t f b;
#X obj 235 288 del 300;
#X msg 185 292 1;
#X msg 235 311 0;
#X obj 281 265 +;
#X obj 318 238 t b f;
#X obj 282 214 r A;
#X obj 318 214 r D;
#X floatatom 563 144 5 0 0 0 - D -;
#X floatatom 563 80 5 0 0 0 - A -;
#X floatatom 564 215 5 0 0 0 - Su -;
#X floatatom 563 279 5 0 0 0 - Re -;
#X obj 469 28 r pyin_attack;
#X obj 469 49 + 10;
#X obj 498 123 + 10;
#X obj 498 102 r pyin_decay;
#X connect 1 0 4 0;
#X connect 2 0 4 1;
#X connect 3 0 6 0;
#X connect 3 0 5 0;
#X connect 4 0 20 0;
#X connect 5 0 1 1;
#X connect 6 0 2 1;
#X connect 7 0 8 1;
#X connect 8 0 7 0;
#X connect 8 0 12 0;
#X connect 9 0 1 0;
#X connect 9 0 2 0;
#X connect 10 0 11 0;
#X connect 10 0 14 0;
#X connect 10 0 26 0;
#X connect 11 0 27 0;
#X connect 12 0 28 0;
#X connect 13 0 16 0;
#X connect 13 1 17 0;
#X connect 13 2 18 0;
#X connect 13 3 19 0;
#X connect 14 0 8 1;
#X connect 16 0 9 0;
#X connect 17 0 9 0;
#X connect 18 0 9 0;
#X connect 19 0 9 0;
#X connect 20 0 15 0;
#X connect 20 0 15 1;
#X connect 21 0 20 1;
#X connect 27 0 8 0;
#X connect 28 0 13 0;
#X connect 28 1 30 0;
#X connect 28 1 29 0;
#X connect 29 0 31 0;
#X connect 30 0 21 0;
#X connect 31 0 21 0;
#X connect 32 0 29 1;
#X connect 33 0 32 0;
#X connect 33 1 32 1;
#X connect 34 0 32 0;
#X connect 35 0 33 0;
#X connect 40 0 41 0;
#X connect 41 0 22 0;
#X connect 42 0 23 0;
#X connect 43 0 42 0;
